<?xml version="1.0" encoding="UTF-8"?>
<!DOCTYPE svg PUBLIC "-//W3C//DTD SVG 1.1//EN" "http://www.w3.org/Graphics/SVG/1.1/DTD/svg11.dtd">
<svg xmlns="http://www.w3.org/2000/svg" version="1.1" width="2048px" height="726px" style="shape-rendering:geometricPrecision; text-rendering:geometricPrecision; image-rendering:optimizeQuality; fill-rule:evenodd; clip-rule:evenodd" xmlns:xlink="http://www.w3.org/1999/xlink">
<g><path style="opacity:1" fill="#000000" d="M -0.5,-0.5 C 682.167,-0.5 1364.83,-0.5 2047.5,-0.5C 2047.5,241.5 2047.5,483.5 2047.5,725.5C 1364.83,725.5 682.167,725.5 -0.5,725.5C -0.5,483.5 -0.5,241.5 -0.5,-0.5 Z"/></g>
<g><path style="opacity:1" fill="#009959" d="M 866.5,156.5 C 864.823,160.545 864.156,164.878 864.5,169.5C 864.798,176.582 863.132,183.082 859.5,189C 856.449,189.857 853.783,189.19 851.5,187C 844.981,180.98 838.315,175.147 831.5,169.5C 826.709,174.792 821.709,179.959 816.5,185C 813.975,185.896 811.808,185.396 810,183.5C 808.338,173.188 806.171,163.021 803.5,153C 787.85,151.98 772.183,151.313 756.5,151C 754.876,149.883 753.876,148.383 753.5,146.5C 755.907,142.585 758.907,139.085 762.5,136C 797.985,109.523 834.818,85.0229 873,62.5C 876.403,63.8958 878.236,66.3958 878.5,70C 873.393,98.6913 869.393,127.525 866.5,156.5 Z"/></g>
<g><path style="opacity:1" fill="#000301" d="M 868.5,86.5 C 866.437,93.9125 865.104,101.579 864.5,109.5C 862.793,119.781 861.46,130.114 860.5,140.5C 859.111,145.269 858.444,150.269 858.5,155.5C 857.792,163.59 856.625,171.59 855,179.5C 844.912,170.237 834.412,161.571 823.5,153.5C 837.4,128.03 852.566,103.363 869,79.5C 869.018,81.7972 868.851,84.1305 868.5,86.5 Z"/></g>
<g><path style="opacity:1" fill="#000402" d="M 855.5,80.5 C 856.239,80.369 856.906,80.5357 857.5,81C 840.326,101.18 824.992,122.68 811.5,145.5C 810.667,145.833 809.833,146.167 809,146.5C 794.927,144.292 780.76,143.125 766.5,143C 795.516,121.136 825.183,100.303 855.5,80.5 Z"/></g>
<g><path style="opacity:1" fill="#00643a" d="M 868.5,86.5 C 868.171,94.4639 866.838,102.131 864.5,109.5C 865.104,101.579 866.437,93.9125 868.5,86.5 Z"/></g>
<g><path style="opacity:1" fill="#005a35" d="M 860.5,140.5 C 860.556,145.731 859.889,150.731 858.5,155.5C 858.444,150.269 859.111,145.269 860.5,140.5 Z"/></g>
<g><path style="opacity:1" fill="#010905" d="M 812.5,156.5 C 816.824,158.663 820.824,161.33 824.5,164.5C 822.058,167.729 819.392,170.729 816.5,173.5C 815.165,167.821 813.831,162.154 812.5,156.5 Z"/></g>
<g><path style="opacity:1" fill="#005531" d="M 866.5,156.5 C 866.376,161.049 865.709,165.382 864.5,169.5C 864.156,164.878 864.823,160.545 866.5,156.5 Z"/></g>
<g><path style="opacity:1" fill="#009557" d="M 600.5,180.5 C 603.579,180.26 606.579,180.593 609.5,181.5C 610.833,183.167 610.833,184.833 609.5,186.5C 601.768,188.427 594.435,191.261 587.5,195C 582.917,195.934 581.417,194.1 583,189.5C 588.284,185.275 594.118,182.275 600.5,180.5 Z"/></g>
<g><path style="opacity:1" fill="#009758" d="M 431.5,202.5 C 431.41,205.152 432.076,207.485 433.5,209.5C 435.906,213.885 436.74,218.552 436,223.5C 434.333,224.833 432.667,224.833 431,223.5C 425.678,214.874 423.345,205.541 424,195.5C 429.309,194.295 431.809,196.628 431.5,202.5 Z"/></g>
<g><path style="opacity:1" fill="#009658" d="M 789.5,199.5 C 791.167,199.5 792.833,199.5 794.5,199.5C 794.579,202.271 794.079,204.937 793,207.5C 790.333,210.833 787.667,214.167 785,217.5C 782.906,220.103 780.406,222.103 777.5,223.5C 776.558,223.392 775.725,223.059 775,222.5C 774.333,220.833 774.333,219.167 775,217.5C 779.667,211.336 784.5,205.336 789.5,199.5 Z"/></g>
<g><path style="opacity:1" fill="#009557" d="M 636.5,201.5 C 641.391,203.221 644.891,206.554 647,211.5C 648.941,215.048 650.607,218.714 652,222.5C 653.031,225.856 651.864,227.856 648.5,228.5C 646.912,227.99 645.745,226.99 645,225.5C 642.695,218.887 639.362,212.887 635,207.5C 634.252,205.16 634.752,203.16 636.5,201.5 Z"/></g>
<g><path style="opacity:1" fill="#005431" d="M 431.5,202.5 C 432.924,204.515 433.59,206.848 433.5,209.5C 432.076,207.485 431.41,205.152 431.5,202.5 Z"/></g>
<g><path style="opacity:1" fill="#009758" d="M 571.5,213.5 C 570.797,219.733 570.13,226.066 569.5,232.5C 563.795,231.809 561.462,228.476 562.5,222.5C 562.386,218.292 563.219,214.292 565,210.5C 566.789,208.771 568.956,208.104 571.5,208.5C 571.5,210.167 571.5,211.833 571.5,213.5 Z"/></g>
<g><path style="opacity:1" fill="#022e1b" d="M 571.5,213.5 C 572.123,220.255 571.456,226.588 569.5,232.5C 570.13,226.066 570.797,219.733 571.5,213.5 Z"/></g>
<g><path style="opacity:1" fill="#009657" d="M 757.5,236.5 C 762.631,236.606 763.797,238.939 761,243.5C 756.167,247.667 751.333,251.833 746.5,256C 741.917,256.934 740.417,255.1 742,250.5C 747.362,245.968 752.528,241.301 757.5,236.5 Z"/></g>
<g><path style="opacity:1" fill="#009557" d="M 641.5,245.5 C 645.509,245.014 647.342,246.68 647,250.5C 643.692,256.95 639.526,262.783 634.5,268C 630.513,268.339 629.013,266.506 630,262.5C 634.339,257.15 638.172,251.484 641.5,245.5 Z"/></g>
<g><path style="opacity:1" fill="#009557" d="M 580.5,257.5 C 581.552,257.351 582.552,257.517 583.5,258C 589.897,262.727 596.564,267.06 603.5,271C 605.179,274.114 604.345,276.281 601,277.5C 592.87,274.101 585.537,269.434 579,263.5C 578.252,261.16 578.752,259.16 580.5,257.5 Z"/></g>
<g><path style="opacity:1" fill="#009859" d="M 456.5,259.5 C 457.552,259.351 458.552,259.517 459.5,260C 465.071,266.242 471.238,271.742 478,276.5C 479.103,282.451 476.936,283.951 471.5,281C 467,277.167 462.5,273.333 458,269.5C 456.596,267.606 455.43,265.606 454.5,263.5C 454.752,261.927 455.418,260.594 456.5,259.5 Z"/></g>
<g><path style="opacity:1" fill="#009657" d="M 720.5,265.5 C 725.068,265.083 726.568,267.083 725,271.5C 716.936,277.052 708.103,280.552 698.5,282C 695.833,280 695.833,278 698.5,276C 705.803,272.18 713.136,268.68 720.5,265.5 Z"/></g>
<g><path style="opacity:1" fill="#009456" d="M 633.5,283.5 C 644.505,283.333 655.505,283.5 666.5,284C 667.885,286.585 667.218,288.585 664.5,290C 654.545,291.498 644.545,291.831 634.5,291C 632.163,288.806 631.83,286.306 633.5,283.5 Z"/></g>
<g><path style="opacity:1" fill="#009657" d="M 585.5,289.5 C 587.527,289.338 589.527,289.505 591.5,290C 592.833,291.667 592.833,293.333 591.5,295C 582.594,300.476 572.928,303.309 562.5,303.5C 562.261,301.533 562.594,299.699 563.5,298C 571.019,295.398 578.352,292.565 585.5,289.5 Z"/></g>
<g><path style="opacity:1" fill="#009456" d="M 503.5,293.5 C 513.328,293.944 522.994,295.444 532.5,298C 534.325,299.466 534.825,301.299 534,303.5C 524.691,305.06 515.524,304.227 506.5,301C 502.688,299.568 501.688,297.068 503.5,293.5 Z"/></g>
<g><path style="opacity:1" fill="#009e5c" d="M 429.5,316.5 C 467.635,314.516 493.969,331.016 508.5,366C 516.318,395.532 509.318,420.866 487.5,442C 462.886,461.366 436.219,464.699 407.5,452C 377.008,433.174 364.842,406.007 371,370.5C 380.174,341.154 399.674,323.154 429.5,316.5 Z"/></g>
<g><path style="opacity:1" fill="#009e5c" d="M 634.5,318.5 C 657.167,318.5 679.833,318.5 702.5,318.5C 702.5,324.5 702.5,330.5 702.5,336.5C 686.5,336.5 670.5,336.5 654.5,336.5C 654.5,348.167 654.5,359.833 654.5,371.5C 670.5,371.5 686.5,371.5 702.5,371.5C 702.5,377.167 702.5,382.833 702.5,388.5C 686.5,388.5 670.5,388.5 654.5,388.5C 654.5,411.833 654.5,435.167 654.5,458.5C 647.833,458.5 641.167,458.5 634.5,458.5C 634.5,411.833 634.5,365.167 634.5,318.5 Z"/></g>
<g><path style="opacity:1" fill="#009d5c" d="M 877.5,318.5 C 902.66,314.967 926.327,319.134 948.5,331C 971.504,347.972 981.338,370.806 978,399.5C 971.736,430.431 953.236,449.598 922.5,457C 907.206,458.379 891.873,458.879 876.5,458.5C 876.172,411.761 876.505,365.095 877.5,318.5 Z"/></g>
<g><path style="opacity:1" fill="#009c5b" d="M 1427.5,318.5 C 1434.09,318.189 1440.59,318.522 1447,319.5C 1447.67,349.5 1447.67,379.5 1447,409.5C 1445.66,441.342 1429.16,458.009 1397.5,459.5C 1397.5,453.833 1397.5,448.167 1397.5,442.5C 1411.98,442.355 1421.14,435.355 1425,421.5C 1426.14,387.134 1426.97,352.801 1427.5,318.5 Z"/></g>
<g><path style="opacity:1" fill="#000100" d="M 452.5,438.5 C 446.203,439.32 439.869,439.653 433.5,439.5C 410.928,434.761 397.094,421.095 392,398.5C 387.948,370.763 398.448,350.93 423.5,339C 451.155,331.584 471.655,340.417 485,365.5C 492.717,385.759 490.384,404.759 478,422.5C 471.179,430.494 462.679,435.828 452.5,438.5 Z"/></g>
<g><path style="opacity:1" fill="#000000" d="M 897.5,336.5 C 941.382,336.216 960.882,357.882 956,401.5C 950.264,425.976 934.764,439.143 909.5,441C 905.514,441.499 901.514,441.666 897.5,441.5C 897.5,406.5 897.5,371.5 897.5,336.5 Z"/></g>
<g><path style="opacity:1" fill="#009f5d" d="M 592.5,410.5 C 592.56,411.043 592.893,411.376 593.5,411.5C 594.5,387.843 594.833,364.176 594.5,340.5C 600.5,340.5 606.5,340.5 612.5,340.5C 612.833,380.506 612.5,420.506 611.5,460.5C 591.461,436.462 571.794,412.128 552.5,387.5C 552.44,386.957 552.107,386.624 551.5,386.5C 550.5,410.491 550.167,434.491 550.5,458.5C 544.5,458.5 538.5,458.5 532.5,458.5C 532.167,418.161 532.5,377.828 533.5,337.5C 553.539,361.538 573.206,385.872 592.5,410.5 Z"/></g>
<g><path style="opacity:1" fill="#009f5c" d="M 1291.5,393.5 C 1291.22,392.711 1290.72,392.044 1290,391.5C 1289.5,413.497 1289.33,435.497 1289.5,457.5C 1283.69,458.49 1277.69,458.823 1271.5,458.5C 1271.17,418.33 1271.5,378.33 1272.5,338.5C 1289.98,362.099 1307.48,385.766 1325,409.5C 1342.28,385.219 1359.95,361.219 1378,337.5C 1378.5,377.832 1378.67,418.165 1378.5,458.5C 1372.17,458.5 1365.83,458.5 1359.5,458.5C 1359.67,436.164 1359.5,413.831 1359,391.5C 1347.73,407.051 1336.23,422.384 1324.5,437.5C 1313.48,422.815 1302.48,408.148 1291.5,393.5 Z"/></g>
<g><path style="opacity:1" fill="#009e5c" d="M 1519.5,338.5 C 1551.63,336.969 1573.8,350.969 1586,380.5C 1593.58,416.835 1580.42,442.335 1546.5,457C 1517.16,464.243 1493.99,455.41 1477,430.5C 1461.02,397.513 1467.52,370.013 1496.5,348C 1503.79,343.679 1511.46,340.512 1519.5,338.5 Z"/></g>
<g><path style="opacity:1" fill="#009e5c" d="M 743.5,341.5 C 743.5,375.167 743.5,408.833 743.5,442.5C 757.167,442.5 770.833,442.5 784.5,442.5C 785.488,447.64 785.821,452.974 785.5,458.5C 765.167,458.5 744.833,458.5 724.5,458.5C 724.333,419.165 724.5,379.832 725,340.5C 728.081,339.854 731.248,339.521 734.5,339.5C 737.913,339.517 740.913,340.184 743.5,341.5 Z"/></g>
<g><path style="opacity:1" fill="#009d5c" d="M 775.5,339.5 C 782.09,339.189 788.59,339.522 795,340.5C 802.243,356.651 809.743,372.651 817.5,388.5C 825.257,372.651 832.757,356.651 840,340.5C 846.444,339.19 852.944,339.19 859.5,340.5C 849.273,362.621 838.773,384.621 828,406.5C 827.5,423.83 827.333,441.163 827.5,458.5C 821.167,458.5 814.833,458.5 808.5,458.5C 808.667,441.83 808.5,425.163 808,408.5C 796.636,385.771 785.802,362.771 775.5,339.5 Z"/></g>
<g><path style="opacity:1" fill="#009d5c" d="M 996.5,339.5 C 1007.84,339.333 1019.17,339.5 1030.5,340C 1063.14,346.776 1075.3,366.276 1067,398.5C 1062.25,408.75 1054.75,416.083 1044.5,420.5C 1053.17,432.833 1061.83,445.167 1070.5,457.5C 1063.52,458.664 1056.52,458.831 1049.5,458C 1041.96,447.079 1034.29,436.246 1026.5,425.5C 1022.89,424.511 1019.23,424.177 1015.5,424.5C 1015.5,435.833 1015.5,447.167 1015.5,458.5C 1009.17,458.5 1002.83,458.5 996.5,458.5C 996.5,418.833 996.5,379.167 996.5,339.5 Z"/></g>
<g><path style="opacity:1" fill="#009f5c" d="M 1145.5,340.5 C 1145.5,345.5 1145.5,350.5 1145.5,355.5C 1132.99,355.171 1120.66,355.505 1108.5,356.5C 1107.51,365.652 1107.17,374.985 1107.5,384.5C 1119.99,385.495 1132.66,385.829 1145.5,385.5C 1145.5,390.5 1145.5,395.5 1145.5,400.5C 1133.17,400.5 1120.83,400.5 1108.5,400.5C 1107.5,414.323 1107.17,428.323 1107.5,442.5C 1121.5,442.5 1135.5,442.5 1149.5,442.5C 1149.5,447.833 1149.5,453.167 1149.5,458.5C 1129.17,458.5 1108.83,458.5 1088.5,458.5C 1088.33,419.165 1088.5,379.832 1089,340.5C 1107.93,339.169 1126.76,339.169 1145.5,340.5 Z"/></g>
<g><path style="opacity:1" fill="#009e5c" d="M 1206.5,338.5 C 1207.5,338.5 1208.5,338.5 1209.5,338.5C 1224.5,378.5 1239.5,418.5 1254.5,458.5C 1247.83,458.5 1241.17,458.5 1234.5,458.5C 1232.71,452.461 1230.71,446.461 1228.5,440.5C 1215.18,439.334 1201.85,439.167 1188.5,440C 1185.48,445.88 1183.15,452.046 1181.5,458.5C 1174.8,458.83 1168.13,458.497 1161.5,457.5C 1176.8,417.912 1191.8,378.245 1206.5,338.5 Z"/></g>
<g><path style="opacity:1" fill="#009e5c" d="M 1610.5,339.5 C 1622.17,339.333 1633.84,339.5 1645.5,340C 1671.15,347.46 1677.99,362.96 1666,386.5C 1663.59,388.62 1661.09,390.62 1658.5,392.5C 1682.52,406.404 1686.86,424.904 1671.5,448C 1664.8,453.459 1657.13,456.793 1648.5,458C 1635.84,458.5 1623.17,458.667 1610.5,458.5C 1610.5,418.833 1610.5,379.167 1610.5,339.5 Z"/></g>
<g><path style="opacity:1" fill="#067b49" d="M 612.5,340.5 C 606.5,340.5 600.5,340.5 594.5,340.5C 594.833,364.176 594.5,387.843 593.5,411.5C 592.893,411.376 592.56,411.043 592.5,410.5C 593.498,387.006 593.831,363.339 593.5,339.5C 600.022,339.177 606.355,339.51 612.5,340.5 Z"/></g>
<g><path style="opacity:1" fill="#042013" d="M 743.5,341.5 C 744.498,374.662 744.832,407.996 744.5,441.5C 758.01,441.171 771.344,441.504 784.5,442.5C 770.833,442.5 757.167,442.5 743.5,442.5C 743.5,408.833 743.5,375.167 743.5,341.5 Z"/></g>
<g><path style="opacity:1" fill="#067a48" d="M 1272.5,338.5 C 1271.5,378.33 1271.17,418.33 1271.5,458.5C 1270.17,418.331 1270.17,377.998 1271.5,337.5C 1272.11,337.624 1272.44,337.957 1272.5,338.5 Z"/></g>
<g><path style="opacity:1" fill="#067545" d="M 1145.5,340.5 C 1146.49,345.64 1146.82,350.974 1146.5,356.5C 1133.83,356.5 1121.17,356.5 1108.5,356.5C 1120.66,355.505 1132.99,355.171 1145.5,355.5C 1145.5,350.5 1145.5,345.5 1145.5,340.5 Z"/></g>
<g><path style="opacity:1" fill="#000100" d="M 1629.5,356.5 C 1635.64,356.357 1641.64,357.19 1647.5,359C 1653.66,364.312 1655.16,370.812 1652,378.5C 1649.89,382.944 1646.39,385.444 1641.5,386C 1637.51,386.499 1633.51,386.666 1629.5,386.5C 1629.5,376.5 1629.5,366.5 1629.5,356.5 Z"/></g>
<g><path style="opacity:1" fill="#000000" d="M 1015.5,357.5 C 1025.18,356.337 1034.18,358.17 1042.5,363C 1048.46,367.923 1051.13,374.257 1050.5,382C 1050.7,394.137 1045.03,402.137 1033.5,406C 1027.53,406.963 1021.53,407.463 1015.5,407.5C 1015.5,390.833 1015.5,374.167 1015.5,357.5 Z"/></g>
<g><path style="opacity:1" fill="#000100" d="M 1533.5,440.5 C 1528.13,440.608 1522.8,440.275 1517.5,439.5C 1502.11,434.273 1492.95,423.607 1490,407.5C 1486.81,386.052 1494.64,370.218 1513.5,360C 1540.32,352.827 1558.16,362.327 1567,388.5C 1570.17,406.625 1565.01,421.792 1551.5,434C 1546.11,437.852 1540.11,440.019 1533.5,440.5 Z"/></g>
<g><path style="opacity:1" fill="#057847" d="M 1107.5,384.5 C 1120.5,384.5 1133.5,384.5 1146.5,384.5C 1146.82,390.026 1146.49,395.36 1145.5,400.5C 1145.5,395.5 1145.5,390.5 1145.5,385.5C 1132.66,385.829 1119.99,385.495 1107.5,384.5 Z"/></g>
<g><path style="opacity:1" fill="#010502" d="M 1221.5,422.5 C 1212.5,423.833 1203.5,423.833 1194.5,422.5C 1198.39,409.607 1202.89,396.94 1208,384.5C 1213.19,396.903 1217.69,409.57 1221.5,422.5 Z"/></g>
<g><path style="opacity:1" fill="#065b36" d="M 552.5,387.5 C 551.833,411.167 551.167,434.833 550.5,458.5C 550.167,434.491 550.5,410.491 551.5,386.5C 552.107,386.624 552.44,386.957 552.5,387.5 Z"/></g>
<g><path style="opacity:1" fill="#031d11" d="M 1291.5,393.5 C 1290.83,414.833 1290.17,436.167 1289.5,457.5C 1289.33,435.497 1289.5,413.497 1290,391.5C 1290.72,392.044 1291.22,392.711 1291.5,393.5 Z"/></g>
<g><path style="opacity:1" fill="#000301" d="M 1629.5,401.5 C 1637.96,400.598 1645.96,402.098 1653.5,406C 1661.47,412.947 1663.64,421.447 1660,431.5C 1656.93,437.291 1652.09,440.457 1645.5,441C 1640.18,441.499 1634.84,441.666 1629.5,441.5C 1629.5,428.167 1629.5,414.833 1629.5,401.5 Z"/></g>
<g><path style="opacity:1" fill="#06663c" d="M 1194.5,422.5 C 1203.5,423.833 1212.5,423.833 1221.5,422.5C 1222.04,422.56 1222.38,422.893 1222.5,423.5C 1212.83,424.833 1203.17,424.833 1193.5,423.5C 1193.62,422.893 1193.96,422.56 1194.5,422.5 Z"/></g>
<g><path style="opacity:1" fill="#066d40" d="M 452.5,438.5 C 449.135,440.039 445.469,440.706 441.5,440.5C 438.645,440.497 435.978,440.164 433.5,439.5C 439.869,439.653 446.203,439.32 452.5,438.5 Z"/></g>
<g><path style="opacity:1" fill="#063821" d="M 1517.5,439.5 C 1522.8,440.275 1528.13,440.608 1533.5,440.5C 1531.53,441.163 1529.36,441.496 1527,441.5C 1523.52,441.672 1520.36,441.006 1517.5,439.5 Z"/></g>
<g><path style="opacity:1" fill="#052516" d="M 1108.5,400.5 C 1108.5,414.167 1108.5,427.833 1108.5,441.5C 1122.34,441.171 1136.01,441.504 1149.5,442.5C 1135.5,442.5 1121.5,442.5 1107.5,442.5C 1107.17,428.323 1107.5,414.323 1108.5,400.5 Z"/></g>
</svg>
