<?xml version="1.0" encoding="UTF-8"?>
<!DOCTYPE svg PUBLIC "-//W3C//DTD SVG 1.1//EN" "http://www.w3.org/Graphics/SVG/1.1/DTD/svg11.dtd">
<svg xmlns="http://www.w3.org/2000/svg" version="1.1" width="1080px" height="566px" style="shape-rendering:geometricPrecision; text-rendering:geometricPrecision; image-rendering:optimizeQuality; fill-rule:evenodd; clip-rule:evenodd" xmlns:xlink="http://www.w3.org/1999/xlink">
<g><path style="opacity:0.008" fill="#1f5eff" d="M 348.5,185.5 C 352.833,184.167 357.167,184.167 361.5,185.5C 357.167,186.833 352.833,186.833 348.5,185.5 Z"/></g>
<g><path style="opacity:0.005" fill="#42deff" d="M 385.5,185.5 C 382.167,188.167 378.833,188.167 375.5,185.5C 378.857,184.373 382.191,184.373 385.5,185.5 Z"/></g>
<g><path style="opacity:0.005" fill="#3ae6ff" d="M 798.5,185.5 C 794.833,188.167 791.167,188.167 787.5,185.5C 791.206,184.461 794.873,184.461 798.5,185.5 Z"/></g>
<g><path style="opacity:0.004" fill="#0000ff" d="M 252.5,188.5 C 248.833,188.5 245.167,188.5 241.5,188.5C 241.611,187.883 241.944,187.383 242.5,187C 245.5,186.333 248.5,186.333 251.5,187C 252.056,187.383 252.389,187.883 252.5,188.5 Z"/></g>
<g><path style="opacity:0.004" fill="#4dccff" d="M 388.5,186.5 C 393.845,188.18 396.511,191.847 396.5,197.5C 394.484,192.941 391.15,189.441 386.5,187C 387.094,186.536 387.761,186.369 388.5,186.5 Z"/></g>
<g><path style="opacity:0.004" fill="#0000ff" d="M 781.5,186.5 C 781.167,187.167 780.833,187.833 780.5,188.5C 779.833,188.5 779.167,188.5 778.5,188.5C 778.973,187.094 779.973,186.427 781.5,186.5 Z"/></g>
<g><path style="opacity:0.004" fill="#00fffe" d="M 781.5,186.5 C 782.167,186.5 782.833,186.5 783.5,186.5C 784.552,186.351 785.552,186.517 786.5,187C 784.564,187.813 782.564,188.313 780.5,188.5C 780.833,187.833 781.167,187.167 781.5,186.5 Z"/></g>
<g><path style="opacity:0.008" fill="#1f5eff" d="M 441.5,189.5 C 449.833,188.167 458.167,188.167 466.5,189.5C 458.16,190.797 449.826,190.797 441.5,189.5 Z"/></g>
<g><path style="opacity:0.004" fill="#0000ff" d="M 775.5,189.5 C 773.833,191.833 771.833,193.833 769.5,195.5C 770.5,192.5 772.5,190.5 775.5,189.5 Z"/></g>
<g><path style="opacity:0.012" fill="#16c4ff" d="M 437.5,189.5 C 438.833,189.5 440.167,189.5 441.5,189.5C 449.826,190.797 458.16,190.797 466.5,189.5C 467.833,189.5 469.167,189.5 470.5,189.5C 470.082,190.222 469.416,190.722 468.5,191C 471.113,192.071 471.113,192.905 468.5,193.5C 468.134,192.305 467.301,191.639 466,191.5C 458.871,192.614 451.704,192.781 444.5,192C 441.996,191.302 439.663,190.469 437.5,189.5 Z"/></g>
<g><path style="opacity:0.004" fill="#0000ff" d="M 433.5,191.5 C 431.5,192.833 429.833,194.5 428.5,196.5C 428.5,193.167 430.167,191.5 433.5,191.5 Z"/></g>
<g><path style="opacity:0.004" fill="#0000ff" d="M 482.5,192.5 C 484.027,192.427 485.027,193.094 485.5,194.5C 483.973,194.573 482.973,193.906 482.5,192.5 Z"/></g>
<g><path style="opacity:0.004" fill="#0000ff" d="M 741.5,192.5 C 744.044,193.708 745.378,195.708 745.5,198.5C 743.674,196.853 742.34,194.853 741.5,192.5 Z"/></g>
<g><path style="opacity:0.004" fill="#46c7ff" d="M 707.5,190.5 C 711.223,190.358 712.056,191.691 710,194.5C 708.667,193.833 707.333,193.167 706,192.5C 704.5,194 703,195.5 701.5,197C 702.833,198.84 702.666,199.34 701,198.5C 700.304,201.478 699.804,204.478 699.5,207.5C 698.833,207.167 698.167,206.833 697.5,206.5C 697.5,205.167 697.5,203.833 697.5,202.5C 699.176,201.817 699.843,200.483 699.5,198.5C 701.188,194.812 703.855,192.145 707.5,190.5 Z"/></g>
<g><path style="opacity:0.999" fill="#fafdff" d="M 353.5,196.5 C 358.447,195.628 362.613,196.961 366,200.5C 366.494,202.134 366.66,203.801 366.5,205.5C 364.608,209.168 361.608,210.335 357.5,209C 355.984,207.103 355.317,204.936 355.5,202.5C 354.178,202.33 353.011,202.663 352,203.5C 351.501,208.155 351.334,212.821 351.5,217.5C 354.5,217.5 357.5,217.5 360.5,217.5C 360.5,219.833 360.5,222.167 360.5,224.5C 357.5,224.5 354.5,224.5 351.5,224.5C 351.5,233.833 351.5,243.167 351.5,252.5C 353.5,252.5 355.5,252.5 357.5,252.5C 357.5,254.833 357.5,257.167 357.5,259.5C 350.5,259.5 343.5,259.5 336.5,259.5C 334.692,258.082 334.025,256.082 334.5,253.5C 336.911,253.863 338.411,252.863 339,250.5C 339.5,241.84 339.666,233.173 339.5,224.5C 337.5,224.5 335.5,224.5 333.5,224.5C 333.5,222.167 333.5,219.833 333.5,217.5C 335.5,217.5 337.5,217.5 339.5,217.5C 337.507,205.772 342.174,198.772 353.5,196.5 Z"/></g>
<g><path style="opacity:1" fill="#f6fbff" d="M 385.5,250.5 C 386.552,252.256 388.219,252.923 390.5,252.5C 390.5,254.833 390.5,257.167 390.5,259.5C 382.833,259.5 375.167,259.5 367.5,259.5C 367.5,257.5 367.5,255.5 367.5,253.5C 369.144,253.714 370.644,253.38 372,252.5C 372.175,236.926 372.675,221.426 373.5,206C 371.527,205.505 369.527,205.338 367.5,205.5C 367.5,203.167 367.5,200.833 367.5,198.5C 373.53,198.044 379.53,197.377 385.5,196.5C 385.5,214.5 385.5,232.5 385.5,250.5 Z"/></g>
<g><path style="opacity:0.004" fill="#0000ff" d="M 489.5,196.5 C 491.833,196.833 493.167,198.167 493.5,200.5C 491.833,199.5 490.5,198.167 489.5,196.5 Z"/></g>
<g><path style="opacity:0.004" fill="#0000ff" d="M 769.5,196.5 C 769.5,198.833 769.5,201.167 769.5,203.5C 768.167,204.167 767.167,205.167 766.5,206.5C 765.833,206.5 765.167,206.5 764.5,206.5C 764.167,205.833 763.833,205.167 763.5,204.5C 765.592,204.439 767.092,203.439 768,201.5C 768.198,199.618 768.698,197.952 769.5,196.5 Z"/></g>
<g><path style="opacity:1" fill="#f9fcff" d="M 811.5,216.5 C 816.438,217.554 820.271,220.221 823,224.5C 828.047,237.211 825.88,248.377 816.5,258C 808.49,261.748 800.823,261.248 793.5,256.5C 792.712,257.77 791.712,258.77 790.5,259.5C 788.833,259.5 787.167,259.5 785.5,259.5C 785.5,241.5 785.5,223.5 785.5,205.5C 783.5,205.5 781.5,205.5 779.5,205.5C 779.5,203.167 779.5,200.833 779.5,198.5C 785.591,198.465 791.591,197.799 797.5,196.5C 797.334,204.507 797.5,212.507 798,220.5C 801.823,217.036 806.323,215.703 811.5,216.5 Z"/></g>
<g><path style="opacity:0.005" fill="#00fffe" d="M 396.5,197.5 C 396.833,197.5 397.167,197.5 397.5,197.5C 398.403,200.391 398.736,203.391 398.5,206.5C 398.141,208.831 397.474,208.665 396.5,206C 397.925,204.286 397.592,202.953 395.5,202C 396.38,200.644 396.714,199.144 396.5,197.5 Z"/></g>
<g><path style="opacity:0.004" fill="#0000ff" d="M 397.5,197.5 C 399.388,199.988 400.055,202.988 399.5,206.5C 399.167,206.5 398.833,206.5 398.5,206.5C 398.736,203.391 398.403,200.391 397.5,197.5 Z"/></g>
<g><path style="opacity:0.004" fill="#0000ff" d="M 699.5,198.5 C 699.843,200.483 699.176,201.817 697.5,202.5C 697.229,200.62 697.896,199.287 699.5,198.5 Z"/></g>
<g><path style="opacity:1" fill="#f8fcff" d="M 266.5,205.5 C 274.93,214.969 277.93,225.969 275.5,238.5C 274.037,242.208 272.37,245.874 270.5,249.5C 258.526,261.611 244.859,263.778 229.5,256C 216.465,242.815 214.299,227.982 223,211.5C 231.358,200.935 242.191,197.101 255.5,200C 259.303,201.655 262.97,203.489 266.5,205.5 Z M 245.5,223.5 C 246.5,223.5 247.5,223.5 248.5,223.5C 249.368,227.808 249.534,232.141 249,236.5C 248.577,237.956 247.744,238.456 246.5,238C 245.901,236.378 245.234,234.878 244.5,233.5C 244.5,230.833 244.5,228.167 244.5,225.5C 245.338,225.158 245.672,224.492 245.5,223.5 Z"/></g>
<g><path style="opacity:0.004" fill="#0000ff" d="M 329.5,200.5 C 329.567,201.959 329.234,203.292 328.5,204.5C 328.167,204.5 327.833,204.5 327.5,204.5C 327.229,202.62 327.896,201.287 329.5,200.5 Z"/></g>
<g><path style="opacity:0.01" fill="#2973ff" d="M 428.5,196.5 C 429.819,198.468 429.819,200.468 428.5,202.5C 429.833,203.833 431.167,205.167 432.5,206.5C 430.835,206.166 429.001,206.166 427,206.5C 426.508,205.451 426.674,204.451 427.5,203.5C 427.043,202.702 426.376,202.369 425.5,202.5C 425.654,200.03 426.654,198.03 428.5,196.5 Z"/></g>
<g><path style="opacity:1" fill="#f8fcff" d="M 469.5,201.5 C 485.087,204.59 493.421,214.09 494.5,230C 493.297,245.02 485.631,254.853 471.5,259.5C 460.167,259.5 448.833,259.5 437.5,259.5C 437.5,257.5 437.5,255.5 437.5,253.5C 442.323,253.673 444.323,251.339 443.5,246.5C 443.5,233.5 443.5,220.5 443.5,207.5C 441.5,207.5 439.5,207.5 437.5,207.5C 437.5,205.167 437.5,202.833 437.5,200.5C 448.248,200.191 458.915,200.524 469.5,201.5 Z"/></g>
<g><path style="opacity:0.004" fill="#0000ff" d="M 494.5,201.5 C 497.167,202.167 498.833,203.833 499.5,206.5C 497.5,205.167 495.833,203.5 494.5,201.5 Z"/></g>
<g><path style="opacity:1" fill="#fbfdff" d="M 728.5,211.5 C 728.667,223.171 728.5,234.838 728,246.5C 727.146,252.228 724.313,256.561 719.5,259.5C 714.101,260.994 708.768,260.827 703.5,259C 698.569,254.412 698.236,249.578 702.5,244.5C 705.97,243.875 708.804,244.875 711,247.5C 711.208,249.859 711.374,252.026 711.5,254C 713.888,254.865 715.388,254.032 716,251.5C 716.5,236.837 716.667,222.17 716.5,207.5C 714.5,207.5 712.5,207.5 710.5,207.5C 710.5,205.167 710.5,202.833 710.5,200.5C 718.5,200.5 726.5,200.5 734.5,200.5C 734.5,202.833 734.5,205.167 734.5,207.5C 731.122,206.891 729.122,208.224 728.5,211.5 Z"/></g>
<g><path style="opacity:0.008" fill="#1f5cff" d="M 810.5,197.5 C 811.468,199.607 811.802,201.941 811.5,204.5C 810.833,204.5 810.5,204.833 810.5,205.5C 809.742,203.019 809.742,200.352 810.5,197.5 Z"/></g>
<g><path style="opacity:0.298" fill="#089cff" d="M 364.5,185.5 C 368.167,185.5 371.833,185.5 375.5,185.5C 378.833,188.167 382.167,188.167 385.5,185.5C 386.791,185.263 387.791,185.596 388.5,186.5C 387.761,186.369 387.094,186.536 386.5,187C 391.15,189.441 394.484,192.941 396.5,197.5C 396.714,199.144 396.38,200.644 395.5,202C 397.592,202.953 397.925,204.286 396.5,206C 397.474,208.665 398.141,208.831 398.5,206.5C 398.833,206.5 399.167,206.5 399.5,206.5C 401.893,207.21 404.393,207.877 407,208.5C 408.622,207.901 410.122,207.234 411.5,206.5C 415.479,207.625 419.479,207.625 423.5,206.5C 424.976,208.549 426.31,210.716 427.5,213C 426.004,213.507 424.837,213.007 424,211.5C 423.5,212 423,212.5 422.5,213C 422.912,214.564 423.245,216.064 423.5,217.5C 421.656,219.279 420.99,221.612 421.5,224.5C 422.978,224.238 424.311,224.571 425.5,225.5C 422.503,232.658 420.003,239.991 418,247.5C 414.888,240.944 412.055,234.277 409.5,227.5C 409.453,226 410.119,225 411.5,224.5C 412.474,222.257 412.808,219.924 412.5,217.5C 405.5,217.5 398.5,217.5 391.5,217.5C 391.5,219.833 391.5,222.167 391.5,224.5C 392.833,224.5 394.167,224.5 395.5,224.5C 399.915,237.502 405.582,250.002 412.5,262C 411.076,266.348 409.243,270.515 407,274.5C 405.809,271.466 403.642,269.799 400.5,269.5C 401.242,267.574 402.242,265.741 403.5,264C 402.083,261.174 400.583,261.007 399,263.5C 397.883,262.051 397.216,260.384 397,258.5C 395.705,259.841 395.205,261.174 395.5,262.5C 394.868,259.97 393.868,257.637 392.5,255.5C 393.833,254.833 395.167,254.167 396.5,253.5C 396.741,251.665 396.241,249.999 395,248.5C 396.931,250.53 398.431,252.863 399.5,255.5C 401.028,250.376 398.694,247.376 392.5,246.5C 390.431,246.824 390.098,247.658 391.5,249C 389.564,249.813 387.564,250.313 385.5,250.5C 385.5,232.5 385.5,214.5 385.5,196.5C 379.53,197.377 373.53,198.044 367.5,198.5C 367.5,200.833 367.5,203.167 367.5,205.5C 367.167,205.5 366.833,205.5 366.5,205.5C 366.66,203.801 366.494,202.134 366,200.5C 362.613,196.961 358.447,195.628 353.5,196.5C 352.402,195.603 352.402,194.77 353.5,194C 352.216,193.316 351.049,193.483 350,194.5C 349.833,194 349.667,193.5 349.5,193C 350.682,191.265 352.349,190.265 354.5,190C 353.692,189.692 353.025,189.192 352.5,188.5C 354.484,187.294 356.484,187.294 358.5,188.5C 360.604,187.481 362.604,186.481 364.5,185.5 Z"/></g>
<g><path style="opacity:0.004" fill="#0000ff" d="M 404.5,206.5 C 403.167,206.5 401.833,206.5 400.5,206.5C 401.833,203.833 403.167,203.833 404.5,206.5 Z"/></g>
<g><path style="opacity:0.004" fill="#0000ff" d="M 524.5,204.5 C 524.167,205.167 523.833,205.833 523.5,206.5C 518.167,206.5 512.833,206.5 507.5,206.5C 507.611,205.883 507.944,205.383 508.5,205C 513.823,204.501 519.156,204.334 524.5,204.5 Z"/></g>
<g><path style="opacity:0.004" fill="#00fffe" d="M 524.5,204.5 C 526.833,204.5 529.167,204.5 531.5,204.5C 531.833,205.167 532.167,205.833 532.5,206.5C 529.5,206.5 526.5,206.5 523.5,206.5C 523.833,205.833 524.167,205.167 524.5,204.5 Z"/></g>
<g><path style="opacity:0.004" fill="#0000ff" d="M 531.5,204.5 C 533.698,204.12 535.365,204.787 536.5,206.5C 535.167,206.5 533.833,206.5 532.5,206.5C 532.167,205.833 531.833,205.167 531.5,204.5 Z"/></g>
<g><path style="opacity:0.004" fill="#0000ff" d="M 552.5,204.5 C 552.167,205.167 551.833,205.833 551.5,206.5C 550.5,206.5 549.5,206.5 548.5,206.5C 549.287,204.896 550.62,204.229 552.5,204.5 Z"/></g>
<g><path style="opacity:0.004" fill="#43dcff" d="M 565.5,204.5 C 566.658,205.95 566.158,206.95 564,207.5C 562.701,206.02 561.034,205.354 559,205.5C 556.502,205.917 554.002,206.251 551.5,206.5C 551.833,205.833 552.167,205.167 552.5,204.5C 556.833,203.167 561.167,203.167 565.5,204.5 Z"/></g>
<g><path style="opacity:0.004" fill="#3ee2ff" d="M 607.5,204.5 C 608.658,205.95 608.158,206.95 606,207.5C 602.667,204.833 599.333,204.833 596,207.5C 595.329,206.748 594.496,206.414 593.5,206.5C 593.833,205.833 594.167,205.167 594.5,204.5C 598.847,203.326 603.181,203.326 607.5,204.5 Z"/></g>
<g><path style="opacity:0.004" fill="#0000ff" d="M 647.5,204.5 C 647.167,205.167 646.833,205.833 646.5,206.5C 642.833,206.5 639.167,206.5 635.5,206.5C 635.167,206.5 634.833,206.5 634.5,206.5C 634.611,205.883 634.944,205.383 635.5,205C 639.486,204.501 643.486,204.334 647.5,204.5 Z"/></g>
<g><path style="opacity:0.004" fill="#00fffe" d="M 647.5,204.5 C 652.167,204.5 656.833,204.5 661.5,204.5C 661.209,205.649 660.376,206.316 659,206.5C 654.897,205.958 650.73,205.958 646.5,206.5C 646.833,205.833 647.167,205.167 647.5,204.5 Z"/></g>
<g><path style="opacity:0.004" fill="#00fffe" d="M 810.5,205.5 C 810.5,204.833 810.833,204.5 811.5,204.5C 812.5,204.5 813.5,204.5 814.5,204.5C 814.611,205.117 814.944,205.617 815.5,206C 813.735,206.64 812.068,206.473 810.5,205.5 Z"/></g>
<g><path style="opacity:0.346" fill="#0c9dff" d="M 783.5,186.5 C 784.568,185.566 785.901,185.232 787.5,185.5C 791.167,188.167 794.833,188.167 798.5,185.5C 804.869,187.203 808.869,191.203 810.5,197.5C 809.742,200.352 809.742,203.019 810.5,205.5C 809.524,206.815 808.524,208.148 807.5,209.5C 809.31,209.423 810.644,210.59 811.5,213C 810.833,213.333 810.167,213.667 809.5,214C 810.756,214.417 811.423,215.25 811.5,216.5C 806.323,215.703 801.823,217.036 798,220.5C 797.5,212.507 797.334,204.507 797.5,196.5C 791.591,197.799 785.591,198.465 779.5,198.5C 779.5,200.833 779.5,203.167 779.5,205.5C 781.5,205.5 783.5,205.5 785.5,205.5C 785.5,223.5 785.5,241.5 785.5,259.5C 787.167,259.5 788.833,259.5 790.5,259.5C 790.082,260.222 789.416,260.722 788.5,261C 789.5,261.333 790.5,261.667 791.5,262C 789.438,264.068 788.272,266.568 788,269.5C 786.89,271.037 785.39,271.703 783.5,271.5C 780.873,270.908 778.206,270.575 775.5,270.5C 776.952,269.698 778.618,269.198 780.5,269C 777.648,267.037 774.981,267.37 772.5,270C 773.094,270.464 773.761,270.631 774.5,270.5C 772.786,271.738 770.786,272.405 768.5,272.5C 767.167,272.5 765.833,272.5 764.5,272.5C 759.523,273.69 754.523,273.69 749.5,272.5C 749.167,272.5 748.833,272.5 748.5,272.5C 746.909,271.781 745.409,270.781 744,269.5C 742.984,270.634 742.317,270.301 742,268.5C 740.442,269.345 739.442,268.679 739,266.5C 737.272,267.352 737.105,268.352 738.5,269.5C 737.167,269.5 736.5,268.833 736.5,267.5C 734.712,266.378 732.712,266.211 730.5,267C 729.748,267.671 729.414,268.504 729.5,269.5C 729.04,268.235 727.707,267.069 725.5,266C 726.167,265.333 726.833,264.667 727.5,264C 725.862,263.758 724.362,262.925 723,261.5C 722.667,261.833 722.333,262.167 722,262.5C 721.623,261.058 720.79,260.058 719.5,259.5C 724.313,256.561 727.146,252.228 728,246.5C 728.5,234.838 728.667,223.171 728.5,211.5C 731.025,210.108 733.192,210.442 735,212.5C 735.419,208.148 736.086,207.815 737,211.5C 737.483,210.552 737.649,209.552 737.5,208.5C 738.552,208.351 739.552,208.517 740.5,209C 739.72,210.073 739.887,211.24 741,212.5C 741.75,211.874 742.584,211.374 743.5,211C 742.649,208.189 742.482,205.022 743,201.5C 743.484,199.822 744.317,199.156 745.5,199.5C 746.404,200.209 746.737,201.209 746.5,202.5C 745.751,203.531 745.085,204.698 744.5,206C 745.667,206.5 746.5,207.333 747,208.5C 747.383,207.944 747.883,207.611 748.5,207.5C 749.222,207.918 749.722,208.584 750,209.5C 751.145,208.364 752.312,207.364 753.5,206.5C 757.303,205.586 760.969,205.586 764.5,206.5C 765.167,206.5 765.833,206.5 766.5,206.5C 767.496,206.586 768.329,206.252 769,205.5C 769.333,206.167 769.667,206.833 770,207.5C 770.765,205.934 770.598,204.601 769.5,203.5C 769.5,201.167 769.5,198.833 769.5,196.5C 769.5,196.167 769.5,195.833 769.5,195.5C 771.833,193.833 773.833,191.833 775.5,189.5C 776.391,188.89 777.391,188.557 778.5,188.5C 779.167,188.5 779.833,188.5 780.5,188.5C 782.564,188.313 784.564,187.813 786.5,187C 785.552,186.517 784.552,186.351 783.5,186.5 Z"/></g>
<g><path style="opacity:0.004" fill="#3ae7ff" d="M 763.5,204.5 C 763.833,205.167 764.167,205.833 764.5,206.5C 760.969,205.586 757.303,205.586 753.5,206.5C 752.127,206.657 750.793,206.49 749.5,206C 750.056,205.617 750.389,205.117 750.5,204.5C 754.874,203.584 759.208,203.584 763.5,204.5 Z"/></g>
<g><path style="opacity:0.006" fill="#00fffe" d="M 769.5,203.5 C 770.598,204.601 770.765,205.934 770,207.5C 769.667,206.833 769.333,206.167 769,205.5C 768.329,206.252 767.496,206.586 766.5,206.5C 767.167,205.167 768.167,204.167 769.5,203.5 Z"/></g>
<g><path style="opacity:0.005" fill="#00fffe" d="M 746.5,202.5 C 746.5,202.833 746.5,203.167 746.5,203.5C 746.733,205.062 747.4,206.395 748.5,207.5C 747.883,207.611 747.383,207.944 747,208.5C 746.5,207.333 745.667,206.5 744.5,206C 745.085,204.698 745.751,203.531 746.5,202.5 Z"/></g>
<g><path style="opacity:0.004" fill="#00fffe" d="M 399.5,206.5 C 399.833,206.5 400.167,206.5 400.5,206.5C 401.833,206.5 403.167,206.5 404.5,206.5C 406.833,206.5 409.167,206.5 411.5,206.5C 410.122,207.234 408.622,207.901 407,208.5C 404.393,207.877 401.893,207.21 399.5,206.5 Z"/></g>
<g><path style="opacity:0.004" fill="#0000ff" d="M 697.5,206.5 C 698.167,206.833 698.833,207.167 699.5,207.5C 699.608,209.514 698.942,211.18 697.5,212.5C 696.599,211.71 695.932,210.71 695.5,209.5C 696.167,208.5 696.833,207.5 697.5,206.5 Z"/></g>
<g><path style="opacity:0.286" fill="#1b9eff" d="M 741.5,192.5 C 742.34,194.853 743.674,196.853 745.5,198.5C 745.5,198.833 745.5,199.167 745.5,199.5C 744.317,199.156 743.484,199.822 743,201.5C 742.482,205.022 742.649,208.189 743.5,211C 742.584,211.374 741.75,211.874 741,212.5C 739.887,211.24 739.72,210.073 740.5,209C 739.552,208.517 738.552,208.351 737.5,208.5C 737.649,209.552 737.483,210.552 737,211.5C 736.086,207.815 735.419,208.148 735,212.5C 733.192,210.442 731.025,210.108 728.5,211.5C 729.122,208.224 731.122,206.891 734.5,207.5C 734.5,205.167 734.5,202.833 734.5,200.5C 726.5,200.5 718.5,200.5 710.5,200.5C 710.5,202.833 710.5,205.167 710.5,207.5C 712.5,207.5 714.5,207.5 716.5,207.5C 716.667,222.17 716.5,236.837 716,251.5C 715.388,254.032 713.888,254.865 711.5,254C 711.374,252.026 711.208,249.859 711,247.5C 708.804,244.875 705.97,243.875 702.5,244.5C 701.702,241.339 702.369,238.339 704.5,235.5C 704.291,234.914 703.957,234.414 703.5,234C 707.633,233.434 708.133,231.268 705,227.5C 704.667,228.833 704.333,230.167 704,231.5C 703.727,229.671 702.893,228.171 701.5,227C 703.93,224.805 705.597,222.138 706.5,219C 705.461,217.383 704.461,216.217 703.5,215.5C 700.927,213.868 700.261,211.702 701.5,209C 700.956,208.283 700.289,207.783 699.5,207.5C 699.804,204.478 700.304,201.478 701,198.5C 702.666,199.34 702.833,198.84 701.5,197C 703,195.5 704.5,194 706,192.5C 707.333,193.167 708.667,193.833 710,194.5C 712.056,191.691 711.223,190.358 707.5,190.5C 716.978,188.017 726.645,187.85 736.5,190C 738.315,190.757 739.981,191.59 741.5,192.5 Z"/></g>
<g><path style="opacity:0.012" fill="#1d5fff" d="M 746.5,203.5 C 747.708,204.234 749.041,204.567 750.5,204.5C 750.389,205.117 750.056,205.617 749.5,206C 750.793,206.49 752.127,206.657 753.5,206.5C 752.312,207.364 751.145,208.364 750,209.5C 749.722,208.584 749.222,207.918 748.5,207.5C 747.4,206.395 746.733,205.062 746.5,203.5 Z"/></g>
<g><path style="opacity:0.004" fill="#00fffe" d="M 699.5,207.5 C 700.289,207.783 700.956,208.283 701.5,209C 700.261,211.702 700.927,213.868 703.5,215.5C 702.71,216.609 702.21,217.942 702,219.5C 700.584,217.034 699.084,214.701 697.5,212.5C 698.942,211.18 699.608,209.514 699.5,207.5 Z"/></g>
<g><path style="opacity:0.359" fill="#089cff" d="M 280.5,204.5 C 283.552,206.178 286.885,206.845 290.5,206.5C 294.5,206.5 298.5,206.5 302.5,206.5C 306.866,205.687 311.199,205.687 315.5,206.5C 317.721,206.561 318.054,205.895 316.5,204.5C 319.132,205.873 321.966,206.873 325,207.5C 326.31,206.87 327.144,205.87 327.5,204.5C 327.833,204.5 328.167,204.5 328.5,204.5C 329.473,204.987 330.473,205.487 331.5,206C 330.328,206.419 329.328,207.085 328.5,208C 329.449,208.617 330.282,208.451 331,207.5C 331.359,210.376 330.359,212.709 328,214.5C 326.598,212.027 325.098,212.027 323.5,214.5C 325.119,214.905 327.119,215.405 329.5,216C 328.833,216.333 328.167,216.667 327.5,217C 328.451,217.718 328.617,218.551 328,219.5C 327,218.167 326,218.167 325,219.5C 324.517,218.552 324.351,217.552 324.5,216.5C 321.203,216.329 320.869,216.995 323.5,218.5C 322.8,218.787 322.133,219.12 321.5,219.5C 313.787,215.277 306.287,215.611 299,220.5C 298.51,219.207 298.343,217.873 298.5,216.5C 292.917,217.732 287.25,218.566 281.5,219C 280.565,221.381 280.232,223.881 280.5,226.5C 282.5,226.5 284.5,226.5 286.5,226.5C 286.5,230.167 286.5,233.833 286.5,237.5C 284.61,237.297 283.11,237.963 282,239.5C 279.884,239.571 277.717,239.238 275.5,238.5C 277.93,225.969 274.93,214.969 266.5,205.5C 265.947,202.206 266.947,200.54 269.5,200.5C 269.167,199.833 268.833,199.167 268.5,198.5C 270.541,197.903 272.374,197.903 274,198.5C 275.167,199.667 276.333,200.833 277.5,202C 277.201,203.32 277.034,204.82 277,206.5C 273.59,207.874 273.757,208.541 277.5,208.5C 277.413,211.598 277.913,211.932 279,209.5C 280.976,210.543 281.476,211.877 280.5,213.5C 282.353,213.92 284.187,214.253 286,214.5C 288.485,211.993 287.985,210.493 284.5,210C 285.5,209.667 286.5,209.333 287.5,209C 285.231,208.242 283.064,208.409 281,209.5C 277.98,208.178 277.813,206.511 280.5,204.5 Z"/></g>
<g><path style="opacity:0.004" fill="#00fffe" d="M 303.5,204.5 C 307.833,204.5 312.167,204.5 316.5,204.5C 318.054,205.895 317.721,206.561 315.5,206.5C 311.199,205.687 306.866,205.687 302.5,206.5C 302.833,205.833 303.167,205.167 303.5,204.5 Z"/></g>
<g><path style="opacity:0.004" fill="#0000ff" d="M 303.5,204.5 C 303.167,205.167 302.833,205.833 302.5,206.5C 298.5,206.5 294.5,206.5 290.5,206.5C 294.373,204.57 298.706,203.903 303.5,204.5 Z"/></g>
<g><path style="opacity:0.216" fill="#0c9dff" d="M 565.5,204.5 C 568.878,205.838 572.211,207.172 575.5,208.5C 576.765,209.479 578.099,210.479 579.5,211.5C 580.298,211.043 580.631,210.376 580.5,209.5C 583.402,208.216 586.402,207.216 589.5,206.5C 590.833,206.5 592.167,206.5 593.5,206.5C 594.496,206.414 595.329,206.748 596,207.5C 599.333,204.833 602.667,204.833 606,207.5C 608.158,206.95 608.658,205.95 607.5,204.5C 610.143,205.454 612.81,206.454 615.5,207.5C 617.993,209.584 620.66,209.917 623.5,208.5C 626.998,207.083 630.665,206.417 634.5,206.5C 634.833,206.5 635.167,206.5 635.5,206.5C 636.997,207.306 638.664,207.972 640.5,208.5C 643.331,207.204 645.998,207.537 648.5,209.5C 648.291,210.086 647.957,210.586 647.5,211C 650.005,212.38 652.005,214.214 653.5,216.5C 649.818,216.591 646.651,217.924 644,220.5C 643.51,219.207 643.343,217.873 643.5,216.5C 637.521,217.646 631.521,218.646 625.5,219.5C 623.284,220.203 621.451,221.536 620,223.5C 618.833,222.333 617.667,221.167 616.5,220C 617.34,218.334 616.84,218.167 615,219.5C 614.399,217.641 613.566,217.308 612.5,218.5C 603.528,215.379 594.862,216.046 586.5,220.5C 585.438,218.121 584.105,218.121 582.5,220.5C 583.609,222.214 582.942,222.881 580.5,222.5C 580.422,217.18 578.922,216.513 576,220.5C 575.581,219.328 574.915,218.328 574,217.5C 573.938,219.115 573.771,220.448 573.5,221.5C 567.322,216.791 560.322,215.291 552.5,217C 545.583,219.749 540.917,224.582 538.5,231.5C 537.89,229.566 536.89,227.899 535.5,226.5C 537.069,217.897 533.403,214.731 524.5,217C 521.265,218.36 518.765,220.527 517,223.5C 516.503,221.19 516.337,218.857 516.5,216.5C 514.833,216.5 513.167,216.5 511.5,216.5C 512.091,215.849 512.757,215.182 513.5,214.5C 509.556,212.596 509.89,211.596 514.5,211.5C 514.343,212.873 514.51,214.207 515,215.5C 516.965,212.002 519.298,211.669 522,214.5C 522.833,214.167 523.667,213.833 524.5,213.5C 525.002,212.284 525.335,211.117 525.5,210C 527.579,209.192 529.579,209.359 531.5,210.5C 533.35,211.242 534.016,212.242 533.5,213.5C 534.833,212.5 536.167,211.5 537.5,210.5C 536.798,211.866 536.798,213.533 537.5,215.5C 538.95,214.345 539.95,212.845 540.5,211C 541.5,210.333 542.5,210.333 543.5,211C 542.346,211.914 542.513,212.747 544,213.5C 544.75,212.874 545.584,212.374 546.5,212C 547.833,211.333 547.833,210.667 546.5,210C 548.742,208.993 548.408,208.159 545.5,207.5C 546.209,206.596 547.209,206.263 548.5,206.5C 549.5,206.5 550.5,206.5 551.5,206.5C 554.002,206.251 556.502,205.917 559,205.5C 561.034,205.354 562.701,206.02 564,207.5C 566.158,206.95 566.658,205.95 565.5,204.5 Z"/></g>
<g><path style="opacity:0.004" fill="#0000ff" d="M 575.5,208.5 C 577.216,208.629 578.883,208.962 580.5,209.5C 580.631,210.376 580.298,211.043 579.5,211.5C 578.099,210.479 576.765,209.479 575.5,208.5 Z"/></g>
<g><path style="opacity:0.004" fill="#0000ff" d="M 615.5,207.5 C 618.127,208.092 620.794,208.425 623.5,208.5C 620.66,209.917 617.993,209.584 615.5,207.5 Z"/></g>
<g><path style="opacity:0.004" fill="#0000ff" d="M 594.5,204.5 C 594.167,205.167 593.833,205.833 593.5,206.5C 592.167,206.5 590.833,206.5 589.5,206.5C 590.635,204.787 592.302,204.12 594.5,204.5 Z"/></g>
<g><path style="opacity:0.318" fill="#059eff" d="M 437.5,189.5 C 439.663,190.469 441.996,191.302 444.5,192C 451.704,192.781 458.871,192.614 466,191.5C 467.301,191.639 468.134,192.305 468.5,193.5C 467.841,195.138 467.174,196.805 466.5,198.5C 466.846,199.696 467.346,199.696 468,198.5C 469.039,199.244 469.539,200.244 469.5,201.5C 458.915,200.524 448.248,200.191 437.5,200.5C 437.5,202.833 437.5,205.167 437.5,207.5C 439.5,207.5 441.5,207.5 443.5,207.5C 443.5,220.5 443.5,233.5 443.5,246.5C 441.348,245.923 441.015,244.756 442.5,243C 440.996,241.663 439.996,239.996 439.5,238C 440.888,237.111 440.722,236.611 439,236.5C 438.055,236.905 437.388,237.572 437,238.5C 435.684,237.026 434.684,235.359 434,233.5C 431.887,235.271 432.053,236.771 434.5,238C 433.833,238.333 433.167,238.667 432.5,239C 434.376,241.137 436.376,243.137 438.5,245C 435.833,246 435.833,247 438.5,248C 436.527,250.015 434.86,249.848 433.5,247.5C 429.953,248.082 427.953,249.749 427.5,252.5C 426.461,249.953 427.295,247.953 430,246.5C 431.073,247.28 432.24,247.113 433.5,246C 431.386,244.502 430.886,242.669 432,240.5C 431.586,240.957 431.086,241.291 430.5,241.5C 429.735,240.388 428.735,239.721 427.5,239.5C 428.839,234.992 430.672,230.658 433,226.5C 434.154,225.257 435.488,224.257 437,223.5C 437.495,221.527 437.662,219.527 437.5,217.5C 432.833,217.5 428.167,217.5 423.5,217.5C 423.245,216.064 422.912,214.564 422.5,213C 423,212.5 423.5,212 424,211.5C 424.837,213.007 426.004,213.507 427.5,213C 426.31,210.716 424.976,208.549 423.5,206.5C 424.167,205.167 424.833,203.833 425.5,202.5C 426.376,202.369 427.043,202.702 427.5,203.5C 426.674,204.451 426.508,205.451 427,206.5C 429.001,206.166 430.835,206.166 432.5,206.5C 431.167,205.167 429.833,203.833 428.5,202.5C 429.819,200.468 429.819,198.468 428.5,196.5C 429.833,194.5 431.5,192.833 433.5,191.5C 434.514,190.326 435.847,189.66 437.5,189.5 Z"/></g>
<g><path style="opacity:0.219" fill="#189cff" d="M 814.5,204.5 C 822.812,206.489 829.146,211.155 833.5,218.5C 832.972,219.721 832.305,220.887 831.5,222C 834.167,222.667 834.167,223.333 831.5,224C 832.784,224.684 833.951,224.517 835,223.5C 835.232,224.737 835.732,225.737 836.5,226.5C 837.167,228.167 837.833,229.833 838.5,231.5C 837.503,231.47 836.836,231.97 836.5,233C 837.742,236.652 837.742,240.319 836.5,244C 836.324,246.359 836.991,246.859 838.5,245.5C 836.942,255.784 831.942,263.95 823.5,270C 820.978,271.341 818.311,272.174 815.5,272.5C 814.833,272.5 814.167,272.5 813.5,272.5C 808.167,273.833 802.833,273.833 797.5,272.5C 796.167,272.5 794.833,272.5 793.5,272.5C 789.958,272.813 786.625,272.479 783.5,271.5C 785.39,271.703 786.89,271.037 788,269.5C 788.272,266.568 789.438,264.068 791.5,262C 790.5,261.667 789.5,261.333 788.5,261C 789.416,260.722 790.082,260.222 790.5,259.5C 791.712,258.77 792.712,257.77 793.5,256.5C 800.823,261.248 808.49,261.748 816.5,258C 825.88,248.377 828.047,237.211 823,224.5C 820.271,220.221 816.438,217.554 811.5,216.5C 811.423,215.25 810.756,214.417 809.5,214C 810.167,213.667 810.833,213.333 811.5,213C 810.644,210.59 809.31,209.423 807.5,209.5C 808.524,208.148 809.524,206.815 810.5,205.5C 812.068,206.473 813.735,206.64 815.5,206C 814.944,205.617 814.611,205.117 814.5,204.5 Z"/></g>
<g><path style="opacity:0.008" fill="#1d5bff" d="M 208.5,214.5 C 209.028,215.721 209.695,216.887 210.5,218C 209.906,218.464 209.239,218.631 208.5,218.5C 208.591,216.302 207.925,215.969 206.5,217.5C 206.427,215.973 207.094,214.973 208.5,214.5 Z"/></g>
<g><path style="opacity:0.004" fill="#00fffe" d="M 208.5,218.5 C 207.778,218.918 207.278,219.584 207,220.5C 206.601,220.272 206.435,219.938 206.5,219.5C 206.5,218.833 206.5,218.167 206.5,217.5C 207.925,215.969 208.591,216.302 208.5,218.5 Z"/></g>
<g><path style="opacity:0.999" fill="#fafdff" d="M 321.5,219.5 C 322.32,221.812 323.153,224.146 324,226.5C 324.5,235.16 324.666,243.827 324.5,252.5C 326.167,252.5 327.833,252.5 329.5,252.5C 329.5,254.833 329.5,257.167 329.5,259.5C 322.167,259.5 314.833,259.5 307.5,259.5C 307.5,257.5 307.5,255.5 307.5,253.5C 309.911,253.863 311.411,252.863 312,250.5C 312.856,242.768 312.523,235.102 311,227.5C 307.113,223.728 303.113,223.728 299,227.5C 298.5,235.827 298.334,244.16 298.5,252.5C 300.167,252.5 301.833,252.5 303.5,252.5C 303.5,254.833 303.5,257.167 303.5,259.5C 296.167,259.5 288.833,259.5 281.5,259.5C 281.5,257.5 281.5,255.5 281.5,253.5C 283.911,253.863 285.411,252.863 286,250.5C 286.499,246.179 286.666,241.846 286.5,237.5C 286.5,233.833 286.5,230.167 286.5,226.5C 284.5,226.5 282.5,226.5 280.5,226.5C 280.232,223.881 280.565,221.381 281.5,219C 287.25,218.566 292.917,217.732 298.5,216.5C 298.343,217.873 298.51,219.207 299,220.5C 306.287,215.611 313.787,215.277 321.5,219.5 Z"/></g>
<g><path style="opacity:1" fill="#f6fbff" d="M 511.5,216.5 C 513.167,216.5 514.833,216.5 516.5,216.5C 516.337,218.857 516.503,221.19 517,223.5C 518.765,220.527 521.265,218.36 524.5,217C 533.403,214.731 537.069,217.897 535.5,226.5C 535.047,227.458 534.381,228.292 533.5,229C 528.661,230.716 525.494,229.216 524,224.5C 522.045,225.453 520.378,226.787 519,228.5C 517.868,236.111 517.035,243.778 516.5,251.5C 518.396,252.466 520.396,252.799 522.5,252.5C 522.5,254.833 522.5,257.167 522.5,259.5C 514.833,259.5 507.167,259.5 499.5,259.5C 499.5,257.5 499.5,255.5 499.5,253.5C 501.39,253.703 502.89,253.037 504,251.5C 504.5,243.173 504.666,234.84 504.5,226.5C 502.833,226.5 501.167,226.5 499.5,226.5C 499.5,223.833 499.5,221.167 499.5,218.5C 503.817,218.917 507.817,218.25 511.5,216.5 Z"/></g>
<g><path style="opacity:0.999" fill="#f8fcff" d="M 573.5,221.5 C 576.669,226.346 578.002,231.679 577.5,237.5C 568.475,237.168 559.475,237.502 550.5,238.5C 550.619,244.24 552.952,248.74 557.5,252C 564.19,253.27 569.857,251.436 574.5,246.5C 577.144,247.741 577.977,249.741 577,252.5C 574.914,255.094 572.414,257.094 569.5,258.5C 546.529,264.167 536.196,255.167 538.5,231.5C 540.917,224.582 545.583,219.749 552.5,217C 560.322,215.291 567.322,216.791 573.5,221.5 Z"/></g>
<g><path style="opacity:1" fill="#f8fcff" d="M 612.5,218.5 C 614.514,221.194 616.014,224.194 617,227.5C 617.5,235.827 617.666,244.16 617.5,252.5C 619.167,252.5 620.833,252.5 622.5,252.5C 622.5,254.833 622.5,257.167 622.5,259.5C 616.276,260.061 610.276,259.395 604.5,257.5C 600.378,260.651 595.711,261.984 590.5,261.5C 582.519,257.396 580.352,251.063 584,242.5C 589.852,236.408 597.019,233.741 605.5,234.5C 607.101,228.23 604.934,224.23 599,222.5C 597.029,222.468 595.529,223.302 594.5,225C 595.972,231.529 593.305,234.196 586.5,233C 582.714,228.918 582.714,224.752 586.5,220.5C 594.862,216.046 603.528,215.379 612.5,218.5 Z"/></g>
<g><path style="opacity:1" fill="#fafdff" d="M 653.5,216.5 C 658.74,215.538 662.907,217.205 666,221.5C 672.984,215.96 680.484,215.126 688.5,219C 690.317,220.8 691.484,222.966 692,225.5C 692.5,234.827 692.666,244.161 692.5,253.5C 694.167,253.5 695.833,253.5 697.5,253.5C 697.5,255.5 697.5,257.5 697.5,259.5C 690.5,259.5 683.5,259.5 676.5,259.5C 676.032,256.058 677.198,253.391 680,251.5C 680.667,243.833 680.667,236.167 680,228.5C 676.127,223.334 671.96,223.167 667.5,228C 668.455,236.124 668.788,244.29 668.5,252.5C 670.167,252.5 671.833,252.5 673.5,252.5C 673.5,254.833 673.5,257.167 673.5,259.5C 666.167,259.5 658.833,259.5 651.5,259.5C 651.5,257.5 651.5,255.5 651.5,253.5C 652.822,253.67 653.989,253.337 655,252.5C 655.667,244.167 655.667,235.833 655,227.5C 651.412,223.607 647.746,223.607 644,227.5C 643.5,235.827 643.334,244.16 643.5,252.5C 645.167,252.5 646.833,252.5 648.5,252.5C 648.5,254.833 648.5,257.167 648.5,259.5C 641.167,259.5 633.833,259.5 626.5,259.5C 626.5,257.5 626.5,255.5 626.5,253.5C 629.388,253.78 630.888,252.447 631,249.5C 631.5,241.841 631.666,234.174 631.5,226.5C 629.5,226.5 627.5,226.5 625.5,226.5C 625.5,224.167 625.5,221.833 625.5,219.5C 631.521,218.646 637.521,217.646 643.5,216.5C 643.343,217.873 643.51,219.207 644,220.5C 646.651,217.924 649.818,216.591 653.5,216.5 Z"/></g>
<g><path style="opacity:1" fill="#f8fcff" d="M 750.5,216.5 C 772.78,215.283 781.614,225.616 777,247.5C 771.657,258.752 762.824,262.919 750.5,260C 737.403,253.625 733.236,243.459 738,229.5C 740.353,223.315 744.52,218.982 750.5,216.5 Z"/></g>
<g><path style="opacity:0.33" fill="#0c9cff" d="M 241.5,206.5 C 252.178,204.746 258.678,209.079 261,219.5C 263.601,229.562 262.601,239.228 258,248.5C 245.607,257.466 237.274,254.466 233,239.5C 230.368,229.742 231.368,220.409 236,211.5C 237.73,209.598 239.563,207.931 241.5,206.5 Z M 245.5,223.5 C 246.5,223.5 247.5,223.5 248.5,223.5C 249.368,227.808 249.534,232.141 249,236.5C 248.577,237.956 247.744,238.456 246.5,238C 245.901,236.378 245.234,234.878 244.5,233.5C 244.5,230.833 244.5,228.167 244.5,225.5C 245.338,225.158 245.672,224.492 245.5,223.5 Z"/></g>
<g><path style="opacity:0.276" fill="#109eff" d="M 348.5,185.5 C 352.833,186.833 357.167,186.833 361.5,185.5C 362.5,185.5 363.5,185.5 364.5,185.5C 362.604,186.481 360.604,187.481 358.5,188.5C 356.484,187.294 354.484,187.294 352.5,188.5C 353.025,189.192 353.692,189.692 354.5,190C 352.349,190.265 350.682,191.265 349.5,193C 349.667,193.5 349.833,194 350,194.5C 351.049,193.483 352.216,193.316 353.5,194C 352.402,194.77 352.402,195.603 353.5,196.5C 342.174,198.772 337.507,205.772 339.5,217.5C 337.5,217.5 335.5,217.5 333.5,217.5C 333.5,219.833 333.5,222.167 333.5,224.5C 335.5,224.5 337.5,224.5 339.5,224.5C 339.666,233.173 339.5,241.84 339,250.5C 338.411,252.863 336.911,253.863 334.5,253.5C 334.025,256.082 334.692,258.082 336.5,259.5C 336.027,260.906 335.027,261.573 333.5,261.5C 331.801,261.473 330.467,260.806 329.5,259.5C 329.5,257.167 329.5,254.833 329.5,252.5C 327.833,252.5 326.167,252.5 324.5,252.5C 324.666,243.827 324.5,235.16 324,226.5C 323.153,224.146 322.32,221.812 321.5,219.5C 322.133,219.12 322.8,218.787 323.5,218.5C 320.869,216.995 321.203,216.329 324.5,216.5C 324.351,217.552 324.517,218.552 325,219.5C 326,218.167 327,218.167 328,219.5C 328.617,218.551 328.451,217.718 327.5,217C 328.167,216.667 328.833,216.333 329.5,216C 327.119,215.405 325.119,214.905 323.5,214.5C 325.098,212.027 326.598,212.027 328,214.5C 330.359,212.709 331.359,210.376 331,207.5C 330.282,208.451 329.449,208.617 328.5,208C 329.328,207.085 330.328,206.419 331.5,206C 330.473,205.487 329.473,204.987 328.5,204.5C 329.234,203.292 329.567,201.959 329.5,200.5C 332.991,191.919 339.324,186.919 348.5,185.5 Z"/></g>
<g><path style="opacity:1" fill="#f6fbff" d="M 423.5,217.5 C 428.167,217.5 432.833,217.5 437.5,217.5C 437.662,219.527 437.495,221.527 437,223.5C 435.488,224.257 434.154,225.257 433,226.5C 430.672,230.658 428.839,234.992 427.5,239.5C 423.499,252.001 418.999,264.335 414,276.5C 410.677,282.106 405.844,283.939 399.5,282C 398.29,280.961 397.29,279.794 396.5,278.5C 394.822,274.189 396.155,271.189 400.5,269.5C 403.642,269.799 405.809,271.466 407,274.5C 409.243,270.515 411.076,266.348 412.5,262C 405.582,250.002 399.915,237.502 395.5,224.5C 394.167,224.5 392.833,224.5 391.5,224.5C 391.5,222.167 391.5,219.833 391.5,217.5C 398.5,217.5 405.5,217.5 412.5,217.5C 412.808,219.924 412.474,222.257 411.5,224.5C 410.119,225 409.453,226 409.5,227.5C 412.055,234.277 414.888,240.944 418,247.5C 420.003,239.991 422.503,232.658 425.5,225.5C 424.311,224.571 422.978,224.238 421.5,224.5C 420.99,221.612 421.656,219.279 423.5,217.5 Z"/></g>
<g><path style="opacity:0.011" fill="#2a65ff" d="M 833.5,218.5 C 835.585,220.684 836.585,223.351 836.5,226.5C 835.732,225.737 835.232,224.737 835,223.5C 833.951,224.517 832.784,224.684 831.5,224C 834.167,223.333 834.167,222.667 831.5,222C 832.305,220.887 832.972,219.721 833.5,218.5 Z"/></g>
<g><path style="opacity:0.174" fill="#049cff" d="M 457.5,207.5 C 473.387,206.72 481.054,214.387 480.5,230.5C 481.037,247.3 473.037,254.633 456.5,252.5C 456.199,237.452 456.532,222.452 457.5,207.5 Z"/></g>
<g><path style="opacity:0.004" fill="#0000ff" d="M 248.5,223.5 C 247.5,223.5 246.5,223.5 245.5,223.5C 246.5,220.833 247.5,220.833 248.5,223.5 Z"/></g>
<g><path style="opacity:0.539" fill="#159fff" d="M 557.5,222.5 C 563.615,222.384 566.282,225.384 565.5,231.5C 560.833,231.5 556.167,231.5 551.5,231.5C 551.78,227.254 553.78,224.254 557.5,222.5 Z"/></g>
<g><path style="opacity:0.004" fill="#00fffe" d="M 244.5,225.5 C 244.5,228.167 244.5,230.833 244.5,233.5C 243.703,231.708 243.037,229.208 242.5,226C 243.094,225.536 243.761,225.369 244.5,225.5 Z"/></g>
<g><path style="opacity:0.326" fill="#0e9eff" d="M 586.5,220.5 C 582.714,224.752 582.714,228.918 586.5,233C 593.305,234.196 595.972,231.529 594.5,225C 595.529,223.302 597.029,222.468 599,222.5C 604.934,224.23 607.101,228.23 605.5,234.5C 597.019,233.741 589.852,236.408 584,242.5C 580.352,251.063 582.519,257.396 590.5,261.5C 590.423,262.75 589.756,263.583 588.5,264C 590.886,264.284 591.552,265.284 590.5,267C 593.226,270.45 592.226,272.45 587.5,273C 588.5,273.333 589.5,273.667 590.5,274C 589.906,274.464 589.239,274.631 588.5,274.5C 587.833,274.5 587.167,274.5 586.5,274.5C 586.027,273.094 585.027,272.427 583.5,272.5C 581.597,272.204 579.93,271.537 578.5,270.5C 580.028,270.483 580.528,269.816 580,268.5C 578.333,269.833 576.667,269.833 575,268.5C 574.472,269.816 574.972,270.483 576.5,270.5C 575.791,271.404 574.791,271.737 573.5,271.5C 571.189,269.705 568.855,268.705 566.5,268.5C 568.307,267.605 569.64,266.272 570.5,264.5C 570.182,263.353 569.516,262.519 568.5,262C 569.337,260.989 569.67,259.822 569.5,258.5C 572.414,257.094 574.914,255.094 577,252.5C 577.977,249.741 577.144,247.741 574.5,246.5C 569.857,251.436 564.19,253.27 557.5,252C 552.952,248.74 550.619,244.24 550.5,238.5C 559.475,237.502 568.475,237.168 577.5,237.5C 578.002,231.679 576.669,226.346 573.5,221.5C 573.771,220.448 573.938,219.115 574,217.5C 574.915,218.328 575.581,219.328 576,220.5C 578.922,216.513 580.422,217.18 580.5,222.5C 582.942,222.881 583.609,222.214 582.5,220.5C 584.105,218.121 585.438,218.121 586.5,220.5 Z"/></g>
<g><path style="opacity:0.016" fill="#17d3ff" d="M 205.5,222.5 C 210.732,228.8 210.732,235.134 205.5,241.5C 205.5,240.167 205.5,238.833 205.5,237.5C 206.726,233.178 206.726,228.845 205.5,224.5C 205.5,223.833 205.5,223.167 205.5,222.5 Z"/></g>
<g><path style="opacity:0.243" fill="#159eff" d="M 241.5,188.5 C 245.167,188.5 248.833,188.5 252.5,188.5C 264.889,188.689 274.222,194.022 280.5,204.5C 277.813,206.511 277.98,208.178 281,209.5C 283.064,208.409 285.231,208.242 287.5,209C 286.5,209.333 285.5,209.667 284.5,210C 287.985,210.493 288.485,211.993 286,214.5C 284.187,214.253 282.353,213.92 280.5,213.5C 281.476,211.877 280.976,210.543 279,209.5C 277.913,211.932 277.413,211.598 277.5,208.5C 273.757,208.541 273.59,207.874 277,206.5C 277.034,204.82 277.201,203.32 277.5,202C 276.333,200.833 275.167,199.667 274,198.5C 272.374,197.903 270.541,197.903 268.5,198.5C 268.833,199.167 269.167,199.833 269.5,200.5C 266.947,200.54 265.947,202.206 266.5,205.5C 262.97,203.489 259.303,201.655 255.5,200C 242.191,197.101 231.358,200.935 223,211.5C 214.299,227.982 216.465,242.815 229.5,256C 244.859,263.778 258.526,261.611 270.5,249.5C 271.315,250.429 272.148,251.429 273,252.5C 273.423,251.044 274.256,250.544 275.5,251C 274.576,251.85 274.576,252.85 275.5,254C 274.318,255.679 272.985,257.179 271.5,258.5C 270.813,256.726 269.98,255.059 269,253.5C 268.5,254 268,254.5 267.5,255C 268.445,256.911 268.445,258.911 267.5,261C 268.505,262.109 269.172,263.609 269.5,265.5C 271.484,265.617 273.15,264.95 274.5,263.5C 277.697,264.14 278.863,265.807 278,268.5C 280.054,266.453 281.054,266.453 281,268.5C 280.005,269.066 279.172,269.733 278.5,270.5C 276.372,269.043 274.038,268.043 271.5,267.5C 267.725,270.537 263.392,272.204 258.5,272.5C 257.5,272.5 256.5,272.5 255.5,272.5C 249.463,273.781 243.13,273.781 236.5,272.5C 235.833,272.5 235.167,272.5 234.5,272.5C 227.671,271.666 222.005,268.666 217.5,263.5C 217.068,262.29 216.401,261.29 215.5,260.5C 214.5,260.167 213.833,259.5 213.5,258.5C 213.573,256.973 212.906,255.973 211.5,255.5C 208.51,251.328 206.51,246.661 205.5,241.5C 210.732,235.134 210.732,228.8 205.5,222.5C 205.263,221.209 205.596,220.209 206.5,219.5C 206.435,219.938 206.601,220.272 207,220.5C 207.278,219.584 207.778,218.918 208.5,218.5C 209.239,218.631 209.906,218.464 210.5,218C 209.695,216.887 209.028,215.721 208.5,214.5C 213.609,198.436 224.609,189.77 241.5,188.5 Z"/></g>
<g><path style="opacity:0.008" fill="#3a73ff" d="M 205.5,224.5 C 206.726,228.845 206.726,233.178 205.5,237.5C 204.167,233.167 204.167,228.833 205.5,224.5 Z"/></g>
<g><path style="opacity:0.274" fill="#059dff" d="M 755.5,222.5 C 758.617,222.642 761.117,223.976 763,226.5C 765.823,234.045 766.156,241.712 764,249.5C 760.509,255.661 756.509,255.994 752,250.5C 749.092,242.631 748.759,234.631 751,226.5C 752.397,224.93 753.897,223.596 755.5,222.5 Z"/></g>
<g><path style="opacity:0.004" fill="#46d8ff" d="M 838.5,231.5 C 839.833,236.167 839.833,240.833 838.5,245.5C 836.991,246.859 836.324,246.359 836.5,244C 837.742,240.319 837.742,236.652 836.5,233C 836.836,231.97 837.503,231.47 838.5,231.5 Z"/></g>
<g><path style="opacity:0.31" fill="#1ea0ff" d="M 801.5,224.5 C 804.862,224.07 807.695,225.07 810,227.5C 812.895,234.698 813.228,242.031 811,249.5C 805.783,256.433 801.449,256.1 798,248.5C 797.333,241.5 797.333,234.5 798,227.5C 799.145,226.364 800.312,225.364 801.5,224.5 Z"/></g>
<g><path style="opacity:0.282" fill="#0d9dff" d="M 470.5,189.5 C 474.727,189.744 478.727,190.744 482.5,192.5C 482.973,193.906 483.973,194.573 485.5,194.5C 487.062,194.733 488.395,195.4 489.5,196.5C 490.5,198.167 491.833,199.5 493.5,200.5C 494.167,200.5 494.5,200.833 494.5,201.5C 495.833,203.5 497.5,205.167 499.5,206.5C 502.167,206.5 504.833,206.5 507.5,206.5C 512.833,206.5 518.167,206.5 523.5,206.5C 526.5,206.5 529.5,206.5 532.5,206.5C 533.833,206.5 535.167,206.5 536.5,206.5C 539.43,207.299 542.43,207.632 545.5,207.5C 548.408,208.159 548.742,208.993 546.5,210C 547.833,210.667 547.833,211.333 546.5,212C 545.584,212.374 544.75,212.874 544,213.5C 542.513,212.747 542.346,211.914 543.5,211C 542.5,210.333 541.5,210.333 540.5,211C 539.95,212.845 538.95,214.345 537.5,215.5C 536.798,213.533 536.798,211.866 537.5,210.5C 536.167,211.5 534.833,212.5 533.5,213.5C 534.016,212.242 533.35,211.242 531.5,210.5C 529.579,209.359 527.579,209.192 525.5,210C 525.335,211.117 525.002,212.284 524.5,213.5C 523.667,213.833 522.833,214.167 522,214.5C 519.298,211.669 516.965,212.002 515,215.5C 514.51,214.207 514.343,212.873 514.5,211.5C 509.89,211.596 509.556,212.596 513.5,214.5C 512.757,215.182 512.091,215.849 511.5,216.5C 507.817,218.25 503.817,218.917 499.5,218.5C 499.5,221.167 499.5,223.833 499.5,226.5C 501.167,226.5 502.833,226.5 504.5,226.5C 504.666,234.84 504.5,243.173 504,251.5C 502.89,253.037 501.39,253.703 499.5,253.5C 499.5,255.5 499.5,257.5 499.5,259.5C 507.167,259.5 514.833,259.5 522.5,259.5C 522.5,257.167 522.5,254.833 522.5,252.5C 520.396,252.799 518.396,252.466 516.5,251.5C 517.035,243.778 517.868,236.111 519,228.5C 520.378,226.787 522.045,225.453 524,224.5C 525.494,229.216 528.661,230.716 533.5,229C 534.381,228.292 535.047,227.458 535.5,226.5C 536.89,227.899 537.89,229.566 538.5,231.5C 536.196,255.167 546.529,264.167 569.5,258.5C 569.67,259.822 569.337,260.989 568.5,262C 569.516,262.519 570.182,263.353 570.5,264.5C 569.64,266.272 568.307,267.605 566.5,268.5C 568.855,268.705 571.189,269.705 573.5,271.5C 572.791,272.404 571.791,272.737 570.5,272.5C 569.167,272.5 567.833,272.5 566.5,272.5C 561.774,273.626 556.774,273.626 551.5,272.5C 550.167,272.5 548.833,272.5 547.5,272.5C 542.116,271.977 537.782,269.643 534.5,265.5C 533.221,264.285 532.221,264.618 531.5,266.5C 529.565,270.103 526.565,272.103 522.5,272.5C 521.531,271.691 520.698,270.691 520,269.5C 513.976,269.46 507.81,269.626 501.5,270C 501.833,270.333 502.167,270.667 502.5,271C 501.263,271.232 500.263,271.732 499.5,272.5C 498.508,272.672 497.842,272.338 497.5,271.5C 495.972,268.579 493.139,266.579 489,265.5C 488.167,265.667 487.333,265.833 486.5,266C 488.058,266.21 489.391,266.71 490.5,267.5C 488.833,267.5 487.167,267.5 485.5,267.5C 483.529,265.008 481.696,265.342 480,268.5C 478.59,267.213 477.09,266.046 475.5,265C 475.5,263.667 475.5,262.333 475.5,261C 474.099,260.59 472.766,260.09 471.5,259.5C 485.631,254.853 493.297,245.02 494.5,230C 493.421,214.09 485.087,204.59 469.5,201.5C 469.539,200.244 469.039,199.244 468,198.5C 467.346,199.696 466.846,199.696 466.5,198.5C 467.174,196.805 467.841,195.138 468.5,193.5C 471.113,192.905 471.113,192.071 468.5,191C 469.416,190.722 470.082,190.222 470.5,189.5 Z"/></g>
<g><path style="opacity:0.568" fill="#2ba3ff" d="M 601.5,240.5 C 602.833,240.5 604.167,240.5 605.5,240.5C 607.733,248.747 604.733,252.58 596.5,252C 594.016,249.716 593.849,247.216 596,244.5C 597.812,243.023 599.645,241.69 601.5,240.5 Z"/></g>
<g><path style="opacity:0.234" fill="#129cff" d="M 443.5,246.5 C 444.323,251.339 442.323,253.673 437.5,253.5C 437.5,255.5 437.5,257.5 437.5,259.5C 448.833,259.5 460.167,259.5 471.5,259.5C 472.766,260.09 474.099,260.59 475.5,261C 475.5,262.333 475.5,263.667 475.5,265C 477.09,266.046 478.59,267.213 480,268.5C 481.696,265.342 483.529,265.008 485.5,267.5C 482.212,270.641 478.212,272.308 473.5,272.5C 470.435,271.576 467.769,269.91 465.5,267.5C 464.377,268.544 463.044,269.21 461.5,269.5C 455.46,268.737 449.46,268.404 443.5,268.5C 442.304,268.846 442.304,269.346 443.5,270C 441.277,270.566 439.277,271.4 437.5,272.5C 435.218,271.61 432.885,271.444 430.5,272C 429.044,277.927 426.377,283.093 422.5,287.5C 419.833,288.167 418.167,289.833 417.5,292.5C 413.43,294.889 408.93,295.889 404,295.5C 399.4,295.93 395.233,294.93 391.5,292.5C 391.167,291.5 390.5,290.833 389.5,290.5C 387.453,288.45 385.786,286.117 384.5,283.5C 385.268,282.737 385.768,281.737 386,280.5C 386.626,282.991 387.459,282.991 388.5,280.5C 389.167,281.167 389.833,281.833 390.5,282.5C 390.736,281.753 391.07,280.92 391.5,280C 392.449,279.383 393.282,279.549 394,280.5C 394.708,279.619 395.542,278.953 396.5,278.5C 397.29,279.794 398.29,280.961 399.5,282C 405.844,283.939 410.677,282.106 414,276.5C 418.999,264.335 423.499,252.001 427.5,239.5C 428.735,239.721 429.735,240.388 430.5,241.5C 431.086,241.291 431.586,240.957 432,240.5C 430.886,242.669 431.386,244.502 433.5,246C 432.24,247.113 431.073,247.28 430,246.5C 427.295,247.953 426.461,249.953 427.5,252.5C 427.953,249.749 429.953,248.082 433.5,247.5C 434.86,249.848 436.527,250.015 438.5,248C 435.833,247 435.833,246 438.5,245C 436.376,243.137 434.376,241.137 432.5,239C 433.167,238.667 433.833,238.333 434.5,238C 432.053,236.771 431.887,235.271 434,233.5C 434.684,235.359 435.684,237.026 437,238.5C 437.388,237.572 438.055,236.905 439,236.5C 440.722,236.611 440.888,237.111 439.5,238C 439.996,239.996 440.996,241.663 442.5,243C 441.015,244.756 441.348,245.923 443.5,246.5 Z"/></g>
<g><path style="opacity:0.004" fill="#0000ff" d="M 211.5,255.5 C 212.906,255.973 213.573,256.973 213.5,258.5C 212.094,258.027 211.427,257.027 211.5,255.5 Z"/></g>
<g><path style="opacity:0.241" fill="#039cff" d="M 329.5,259.5 C 330.467,260.806 331.801,261.473 333.5,261.5C 332.282,262.161 330.949,262.828 329.5,263.5C 330.687,263.554 332.02,263.887 333.5,264.5C 334.23,269.007 335.897,269.507 338.5,266C 338.5,265 338.5,264 338.5,263C 340.59,262.732 341.924,263.732 342.5,266C 340.09,266.057 338.756,267.224 338.5,269.5C 334.266,271.805 329.932,271.972 325.5,270C 324.874,269.25 324.374,268.416 324,267.5C 322.352,269.028 320.352,269.695 318,269.5C 316.019,269.371 314.353,268.704 313,267.5C 311.066,269.596 308.566,270.596 305.5,270.5C 302.434,270.596 299.934,269.596 298,267.5C 294.796,269.83 291.296,270.164 287.5,268.5C 285.235,270.127 282.901,271.461 280.5,272.5C 279.508,272.672 278.842,272.338 278.5,271.5C 278.5,271.167 278.5,270.833 278.5,270.5C 279.172,269.733 280.005,269.066 281,268.5C 281.054,266.453 280.054,266.453 278,268.5C 278.863,265.807 277.697,264.14 274.5,263.5C 273.15,264.95 271.484,265.617 269.5,265.5C 269.172,263.609 268.505,262.109 267.5,261C 268.445,258.911 268.445,256.911 267.5,255C 268,254.5 268.5,254 269,253.5C 269.98,255.059 270.813,256.726 271.5,258.5C 272.985,257.179 274.318,255.679 275.5,254C 274.576,252.85 274.576,251.85 275.5,251C 274.256,250.544 273.423,251.044 273,252.5C 272.148,251.429 271.315,250.429 270.5,249.5C 272.37,245.874 274.037,242.208 275.5,238.5C 277.717,239.238 279.884,239.571 282,239.5C 283.11,237.963 284.61,237.297 286.5,237.5C 286.666,241.846 286.499,246.179 286,250.5C 285.411,252.863 283.911,253.863 281.5,253.5C 281.5,255.5 281.5,257.5 281.5,259.5C 288.833,259.5 296.167,259.5 303.5,259.5C 303.5,257.167 303.5,254.833 303.5,252.5C 301.833,252.5 300.167,252.5 298.5,252.5C 298.334,244.16 298.5,235.827 299,227.5C 303.113,223.728 307.113,223.728 311,227.5C 312.523,235.102 312.856,242.768 312,250.5C 311.411,252.863 309.911,253.863 307.5,253.5C 307.5,255.5 307.5,257.5 307.5,259.5C 314.833,259.5 322.167,259.5 329.5,259.5 Z"/></g>
<g><path style="opacity:0.283" fill="#059bff" d="M 625.5,219.5 C 625.5,221.833 625.5,224.167 625.5,226.5C 627.5,226.5 629.5,226.5 631.5,226.5C 631.666,234.174 631.5,241.841 631,249.5C 630.888,252.447 629.388,253.78 626.5,253.5C 626.5,255.5 626.5,257.5 626.5,259.5C 633.833,259.5 641.167,259.5 648.5,259.5C 648.5,257.167 648.5,254.833 648.5,252.5C 646.833,252.5 645.167,252.5 643.5,252.5C 643.334,244.16 643.5,235.827 644,227.5C 647.746,223.607 651.412,223.607 655,227.5C 655.667,235.833 655.667,244.167 655,252.5C 653.989,253.337 652.822,253.67 651.5,253.5C 651.5,255.5 651.5,257.5 651.5,259.5C 649.487,262.002 646.821,263.502 643.5,264C 646.167,264.667 646.167,265.333 643.5,266C 644.598,266.77 644.598,267.603 643.5,268.5C 635.244,269.059 627.244,270.393 619.5,272.5C 614.833,272.5 610.167,272.5 605.5,272.5C 602.523,272.358 600.523,273.025 599.5,274.5C 595.833,275.833 592.167,275.833 588.5,274.5C 589.239,274.631 589.906,274.464 590.5,274C 589.5,273.667 588.5,273.333 587.5,273C 592.226,272.45 593.226,270.45 590.5,267C 591.552,265.284 590.886,264.284 588.5,264C 589.756,263.583 590.423,262.75 590.5,261.5C 595.711,261.984 600.378,260.651 604.5,257.5C 610.276,259.395 616.276,260.061 622.5,259.5C 622.5,257.167 622.5,254.833 622.5,252.5C 620.833,252.5 619.167,252.5 617.5,252.5C 617.666,244.16 617.5,235.827 617,227.5C 616.014,224.194 614.514,221.194 612.5,218.5C 613.566,217.308 614.399,217.641 615,219.5C 616.84,218.167 617.34,218.334 616.5,220C 617.667,221.167 618.833,222.333 620,223.5C 621.451,221.536 623.284,220.203 625.5,219.5 Z"/></g>
<g><path style="opacity:0.256" fill="#0b9cff" d="M 661.5,204.5 C 663.833,205.167 666.167,205.833 668.5,206.5C 669.833,206.5 671.167,206.5 672.5,206.5C 676.339,205.364 680.173,205.364 684,206.5C 686.359,206.676 686.859,206.009 685.5,204.5C 689.088,205.798 692.421,207.464 695.5,209.5C 695.932,210.71 696.599,211.71 697.5,212.5C 699.084,214.701 700.584,217.034 702,219.5C 702.21,217.942 702.71,216.609 703.5,215.5C 704.461,216.217 705.461,217.383 706.5,219C 705.597,222.138 703.93,224.805 701.5,227C 702.893,228.171 703.727,229.671 704,231.5C 704.333,230.167 704.667,228.833 705,227.5C 708.133,231.268 707.633,233.434 703.5,234C 703.957,234.414 704.291,234.914 704.5,235.5C 702.369,238.339 701.702,241.339 702.5,244.5C 698.236,249.578 698.569,254.412 703.5,259C 708.768,260.827 714.101,260.994 719.5,259.5C 720.79,260.058 721.623,261.058 722,262.5C 722.333,262.167 722.667,261.833 723,261.5C 724.362,262.925 725.862,263.758 727.5,264C 726.833,264.667 726.167,265.333 725.5,266C 727.707,267.069 729.04,268.235 729.5,269.5C 727.11,271.02 724.443,272.02 721.5,272.5C 720.5,272.5 719.5,272.5 718.5,272.5C 713.833,273.833 709.167,273.833 704.5,272.5C 703.833,272.5 703.167,272.5 702.5,272.5C 702.611,271.883 702.944,271.383 703.5,271C 699.585,270.985 695.918,270.152 692.5,268.5C 688.12,270.3 684.287,269.634 681,266.5C 680.073,269.719 677.906,271.052 674.5,270.5C 671.131,271.197 669.297,269.864 669,266.5C 668.308,267.025 667.808,267.692 667.5,268.5C 661.694,269.395 655.861,270.062 650,270.5C 647.456,270.664 645.29,269.997 643.5,268.5C 644.598,267.603 644.598,266.77 643.5,266C 646.167,265.333 646.167,264.667 643.5,264C 646.821,263.502 649.487,262.002 651.5,259.5C 658.833,259.5 666.167,259.5 673.5,259.5C 673.5,257.167 673.5,254.833 673.5,252.5C 671.833,252.5 670.167,252.5 668.5,252.5C 668.788,244.29 668.455,236.124 667.5,228C 671.96,223.167 676.127,223.334 680,228.5C 680.667,236.167 680.667,243.833 680,251.5C 677.198,253.391 676.032,256.058 676.5,259.5C 683.5,259.5 690.5,259.5 697.5,259.5C 697.5,257.5 697.5,255.5 697.5,253.5C 695.833,253.5 694.167,253.5 692.5,253.5C 692.666,244.161 692.5,234.827 692,225.5C 691.484,222.966 690.317,220.8 688.5,219C 680.484,215.126 672.984,215.96 666,221.5C 662.907,217.205 658.74,215.538 653.5,216.5C 652.005,214.214 650.005,212.38 647.5,211C 647.957,210.586 648.291,210.086 648.5,209.5C 645.998,207.537 643.331,207.204 640.5,208.5C 638.664,207.972 636.997,207.306 635.5,206.5C 639.167,206.5 642.833,206.5 646.5,206.5C 650.73,205.958 654.897,205.958 659,206.5C 660.376,206.316 661.209,205.649 661.5,204.5 Z"/></g>
<g><path style="opacity:0.004" fill="#00fffe" d="M 673.5,204.5 C 677.5,204.5 681.5,204.5 685.5,204.5C 686.859,206.009 686.359,206.676 684,206.5C 680.173,205.364 676.339,205.364 672.5,206.5C 672.833,205.833 673.167,205.167 673.5,204.5 Z"/></g>
<g><path style="opacity:0.004" fill="#0000ff" d="M 673.5,204.5 C 673.167,205.167 672.833,205.833 672.5,206.5C 671.167,206.5 669.833,206.5 668.5,206.5C 669.635,204.787 671.302,204.12 673.5,204.5 Z"/></g>
<g><path style="opacity:0.247" fill="#059cff" d="M 366.5,205.5 C 366.833,205.5 367.167,205.5 367.5,205.5C 369.527,205.338 371.527,205.505 373.5,206C 372.675,221.426 372.175,236.926 372,252.5C 370.644,253.38 369.144,253.714 367.5,253.5C 367.5,255.5 367.5,257.5 367.5,259.5C 375.167,259.5 382.833,259.5 390.5,259.5C 390.5,257.167 390.5,254.833 390.5,252.5C 388.219,252.923 386.552,252.256 385.5,250.5C 387.564,250.313 389.564,249.813 391.5,249C 390.098,247.658 390.431,246.824 392.5,246.5C 398.694,247.376 401.028,250.376 399.5,255.5C 398.431,252.863 396.931,250.53 395,248.5C 396.241,249.999 396.741,251.665 396.5,253.5C 395.167,254.167 393.833,254.833 392.5,255.5C 393.868,257.637 394.868,259.97 395.5,262.5C 395.205,261.174 395.705,259.841 397,258.5C 397.216,260.384 397.883,262.051 399,263.5C 400.583,261.007 402.083,261.174 403.5,264C 402.242,265.741 401.242,267.574 400.5,269.5C 396.155,271.189 394.822,274.189 396.5,278.5C 395.542,278.953 394.708,279.619 394,280.5C 393.282,279.549 392.449,279.383 391.5,280C 391.07,280.92 390.736,281.753 390.5,282.5C 389.833,281.833 389.167,281.167 388.5,280.5C 387.459,282.991 386.626,282.991 386,280.5C 385.768,281.737 385.268,282.737 384.5,283.5C 383.597,280.609 383.264,277.609 383.5,274.5C 378.944,272.558 373.944,271.892 368.5,272.5C 366.901,272.768 365.568,272.434 364.5,271.5C 365.239,271.631 365.906,271.464 366.5,271C 363.905,270.774 361.405,270.274 359,269.5C 358.536,270.094 358.369,270.761 358.5,271.5C 354.745,271.663 352.245,269.997 351,266.5C 350.626,267.416 350.126,268.25 349.5,269C 345.848,269.499 342.182,269.665 338.5,269.5C 338.756,267.224 340.09,266.057 342.5,266C 341.924,263.732 340.59,262.732 338.5,263C 338.5,264 338.5,265 338.5,266C 335.897,269.507 334.23,269.007 333.5,264.5C 332.02,263.887 330.687,263.554 329.5,263.5C 330.949,262.828 332.282,262.161 333.5,261.5C 335.027,261.573 336.027,260.906 336.5,259.5C 343.5,259.5 350.5,259.5 357.5,259.5C 357.5,257.167 357.5,254.833 357.5,252.5C 355.5,252.5 353.5,252.5 351.5,252.5C 351.5,243.167 351.5,233.833 351.5,224.5C 354.5,224.5 357.5,224.5 360.5,224.5C 360.5,222.167 360.5,219.833 360.5,217.5C 357.5,217.5 354.5,217.5 351.5,217.5C 351.334,212.821 351.501,208.155 352,203.5C 353.011,202.663 354.178,202.33 355.5,202.5C 355.317,204.936 355.984,207.103 357.5,209C 361.608,210.335 364.608,209.168 366.5,205.5 Z"/></g>
<g><path style="opacity:0.004" fill="#0000ff" d="M 215.5,260.5 C 216.401,261.29 217.068,262.29 217.5,263.5C 215.952,263.179 215.285,262.179 215.5,260.5 Z"/></g>
<g><path style="opacity:0.004" fill="#0000ff" d="M 534.5,265.5 C 533.609,266.11 532.609,266.443 531.5,266.5C 532.221,264.618 533.221,264.285 534.5,265.5 Z"/></g>
<g><path style="opacity:0.004" fill="#44dcff" d="M 497.5,271.5 C 494.386,271.445 492.052,270.112 490.5,267.5C 489.391,266.71 488.058,266.21 486.5,266C 487.333,265.833 488.167,265.667 489,265.5C 493.139,266.579 495.972,268.579 497.5,271.5 Z"/></g>
<g><path style="opacity:0.004" fill="#0000ff" d="M 736.5,267.5 C 733.812,267.166 731.479,267.832 729.5,269.5C 729.414,268.504 729.748,267.671 730.5,267C 732.712,266.211 734.712,266.378 736.5,267.5 Z"/></g>
<g><path style="opacity:0.004" fill="#0000ff" d="M 271.5,267.5 C 274.038,268.043 276.372,269.043 278.5,270.5C 278.5,270.833 278.5,271.167 278.5,271.5C 275.674,271.002 273.34,269.669 271.5,267.5 Z"/></g>
<g><path style="opacity:0.004" fill="#00fffe" d="M 775.5,270.5 C 775.167,270.5 774.833,270.5 774.5,270.5C 773.761,270.631 773.094,270.464 772.5,270C 774.981,267.37 777.648,267.037 780.5,269C 778.618,269.198 776.952,269.698 775.5,270.5 Z"/></g>
<g><path style="opacity:0.02" fill="#1bbbff" d="M 358.5,271.5 C 359.167,271.5 359.833,271.5 360.5,271.5C 359.432,272.434 358.099,272.768 356.5,272.5C 355.167,272.5 353.833,272.5 352.5,272.5C 347.517,269.913 342.517,269.913 337.5,272.5C 336.167,272.5 334.833,272.5 333.5,272.5C 332.5,272.5 331.5,272.5 330.5,272.5C 328.833,272.5 327.167,272.5 325.5,272.5C 323.71,271.003 321.544,270.336 319,270.5C 315.884,270.489 313.051,271.155 310.5,272.5C 307.167,272.5 303.833,272.5 300.5,272.5C 295.517,269.913 290.517,269.913 285.5,272.5C 284.5,272.5 283.5,272.5 282.5,272.5C 281.833,272.5 281.167,272.5 280.5,272.5C 282.901,271.461 285.235,270.127 287.5,268.5C 291.296,270.164 294.796,269.83 298,267.5C 299.934,269.596 302.434,270.596 305.5,270.5C 308.566,270.596 311.066,269.596 313,267.5C 314.353,268.704 316.019,269.371 318,269.5C 320.352,269.695 322.352,269.028 324,267.5C 324.374,268.416 324.874,269.25 325.5,270C 329.932,271.972 334.266,271.805 338.5,269.5C 342.182,269.665 345.848,269.499 349.5,269C 350.126,268.25 350.626,267.416 351,266.5C 352.245,269.997 354.745,271.663 358.5,271.5 Z"/></g>
<g><path style="opacity:0.021" fill="#14baff" d="M 473.5,272.5 C 472.167,272.5 470.833,272.5 469.5,272.5C 468.833,272.5 468.167,272.5 467.5,272.5C 466.737,271.732 465.737,271.232 464.5,271C 458.167,270.333 451.833,270.333 445.5,271C 444.263,271.232 443.263,271.732 442.5,272.5C 441.167,272.5 439.833,272.5 438.5,272.5C 438.167,272.5 437.833,272.5 437.5,272.5C 439.277,271.4 441.277,270.566 443.5,270C 442.304,269.346 442.304,268.846 443.5,268.5C 449.46,268.404 455.46,268.737 461.5,269.5C 463.044,269.21 464.377,268.544 465.5,267.5C 467.769,269.91 470.435,271.576 473.5,272.5 Z"/></g>
<g><path style="opacity:0.005" fill="#00fffe" d="M 578.5,270.5 C 577.833,270.5 577.167,270.5 576.5,270.5C 574.972,270.483 574.472,269.816 575,268.5C 576.667,269.833 578.333,269.833 580,268.5C 580.528,269.816 580.028,270.483 578.5,270.5 Z"/></g>
<g><path style="opacity:0.017" fill="#17beff" d="M 702.5,272.5 C 699.833,272.5 697.167,272.5 694.5,272.5C 689.167,269.833 683.833,269.833 678.5,272.5C 676.167,272.5 673.833,272.5 671.5,272.5C 665.833,269.833 660.167,269.833 654.5,272.5C 651.833,272.5 649.167,272.5 646.5,272.5C 640.818,269.897 635.151,269.897 629.5,272.5C 626.167,272.5 622.833,272.5 619.5,272.5C 627.244,270.393 635.244,269.059 643.5,268.5C 645.29,269.997 647.456,270.664 650,270.5C 655.861,270.062 661.694,269.395 667.5,268.5C 667.808,267.692 668.308,267.025 669,266.5C 669.297,269.864 671.131,271.197 674.5,270.5C 677.906,271.052 680.073,269.719 681,266.5C 684.287,269.634 688.12,270.3 692.5,268.5C 695.918,270.152 699.585,270.985 703.5,271C 702.944,271.383 702.611,271.883 702.5,272.5 Z"/></g>
<g><path style="opacity:0.004" fill="#00fffe" d="M 364.5,271.5 C 363.167,271.5 361.833,271.5 360.5,271.5C 359.833,271.5 359.167,271.5 358.5,271.5C 358.369,270.761 358.536,270.094 359,269.5C 361.405,270.274 363.905,270.774 366.5,271C 365.906,271.464 365.239,271.631 364.5,271.5 Z"/></g>
<g><path style="opacity:0.024" fill="#18c1ff" d="M 522.5,272.5 C 521.833,272.5 521.167,272.5 520.5,272.5C 519.833,272.5 519.167,272.5 518.5,272.5C 516.321,271.074 513.821,270.408 511,270.5C 508.456,270.336 506.29,271.003 504.5,272.5C 503.5,272.5 502.5,272.5 501.5,272.5C 500.833,272.5 500.167,272.5 499.5,272.5C 500.263,271.732 501.263,271.232 502.5,271C 502.167,270.667 501.833,270.333 501.5,270C 507.81,269.626 513.976,269.46 520,269.5C 520.698,270.691 521.531,271.691 522.5,272.5 Z"/></g>
<g><path style="opacity:0.004" fill="#3ee3ff" d="M 748.5,272.5 C 748.167,272.5 747.833,272.5 747.5,272.5C 744.208,272.353 741.208,271.353 738.5,269.5C 737.105,268.352 737.272,267.352 739,266.5C 739.442,268.679 740.442,269.345 742,268.5C 742.317,270.301 742.984,270.634 744,269.5C 745.409,270.781 746.909,271.781 748.5,272.5 Z"/></g>
<g><path style="opacity:0.011" fill="#007fff" d="M 300.5,272.5 C 295.5,272.5 290.5,272.5 285.5,272.5C 290.517,269.913 295.517,269.913 300.5,272.5 Z"/></g>
<g><path style="opacity:0.011" fill="#007fff" d="M 325.5,272.5 C 320.5,272.5 315.5,272.5 310.5,272.5C 313.051,271.155 315.884,270.489 319,270.5C 321.544,270.336 323.71,271.003 325.5,272.5 Z"/></g>
<g><path style="opacity:0.011" fill="#007fff" d="M 352.5,272.5 C 347.5,272.5 342.5,272.5 337.5,272.5C 342.517,269.913 347.517,269.913 352.5,272.5 Z"/></g>
<g><path style="opacity:0.011" fill="#007fff" d="M 467.5,272.5 C 459.167,272.5 450.833,272.5 442.5,272.5C 443.263,271.732 444.263,271.232 445.5,271C 451.833,270.333 458.167,270.333 464.5,271C 465.737,271.232 466.737,271.732 467.5,272.5 Z"/></g>
<g><path style="opacity:0.011" fill="#007fff" d="M 518.5,272.5 C 513.833,272.5 509.167,272.5 504.5,272.5C 506.29,271.003 508.456,270.336 511,270.5C 513.821,270.408 516.321,271.074 518.5,272.5 Z"/></g>
<g><path style="opacity:0.011" fill="#007fff" d="M 646.5,272.5 C 640.833,272.5 635.167,272.5 629.5,272.5C 635.151,269.897 640.818,269.897 646.5,272.5 Z"/></g>
<g><path style="opacity:0.011" fill="#007fff" d="M 671.5,272.5 C 665.833,272.5 660.167,272.5 654.5,272.5C 660.167,269.833 665.833,269.833 671.5,272.5 Z"/></g>
<g><path style="opacity:0.01" fill="#007fff" d="M 694.5,272.5 C 689.167,272.5 683.833,272.5 678.5,272.5C 683.833,269.833 689.167,269.833 694.5,272.5 Z"/></g>
<g><path style="opacity:0.004" fill="#48d5ff" d="M 255.5,272.5 C 255.167,273.167 254.833,273.833 254.5,274.5C 248.84,275.752 243.173,275.752 237.5,274.5C 237.167,273.833 236.833,273.167 236.5,272.5C 243.13,273.781 249.463,273.781 255.5,272.5 Z"/></g>
<g><path style="opacity:0.004" fill="#45daff" d="M 566.5,272.5 C 566.167,273.167 565.833,273.833 565.5,274.5C 561.143,275.576 556.81,275.576 552.5,274.5C 552.167,273.833 551.833,273.167 551.5,272.5C 556.774,273.626 561.774,273.626 566.5,272.5 Z"/></g>
<g><path style="opacity:0.004" fill="#0000ff" d="M 234.5,272.5 C 235.167,272.5 235.833,272.5 236.5,272.5C 236.833,273.167 237.167,273.833 237.5,274.5C 235.973,274.573 234.973,273.906 234.5,272.5 Z"/></g>
<g><path style="opacity:0.004" fill="#0000ff" d="M 255.5,272.5 C 256.5,272.5 257.5,272.5 258.5,272.5C 257.713,274.104 256.38,274.771 254.5,274.5C 254.833,273.833 255.167,273.167 255.5,272.5 Z"/></g>
<g><path style="opacity:0.004" fill="#0000ff" d="M 282.5,272.5 C 283.5,272.5 284.5,272.5 285.5,272.5C 290.5,272.5 295.5,272.5 300.5,272.5C 303.833,272.5 307.167,272.5 310.5,272.5C 315.5,272.5 320.5,272.5 325.5,272.5C 327.167,272.5 328.833,272.5 330.5,272.5C 330.389,273.117 330.056,273.617 329.5,274C 314.167,274.667 298.833,274.667 283.5,274C 282.944,273.617 282.611,273.117 282.5,272.5 Z"/></g>
<g><path style="opacity:0.004" fill="#0000ff" d="M 333.5,272.5 C 334.833,272.5 336.167,272.5 337.5,272.5C 342.5,272.5 347.5,272.5 352.5,272.5C 353.833,272.5 355.167,272.5 356.5,272.5C 356.389,273.117 356.056,273.617 355.5,274C 348.5,274.667 341.5,274.667 334.5,274C 333.944,273.617 333.611,273.117 333.5,272.5 Z"/></g>
<g><path style="opacity:0.004" fill="#0000ff" d="M 368.5,272.5 C 373.944,271.892 378.944,272.558 383.5,274.5C 378.821,274.666 374.155,274.499 369.5,274C 368.944,273.617 368.611,273.117 368.5,272.5 Z"/></g>
<g><path style="opacity:0.004" fill="#0000ff" d="M 438.5,272.5 C 439.833,272.5 441.167,272.5 442.5,272.5C 450.833,272.5 459.167,272.5 467.5,272.5C 468.167,272.5 468.833,272.5 469.5,272.5C 469.389,273.117 469.056,273.617 468.5,274C 458.833,274.667 449.167,274.667 439.5,274C 438.944,273.617 438.611,273.117 438.5,272.5 Z"/></g>
<g><path style="opacity:0.004" fill="#0000ff" d="M 501.5,272.5 C 502.5,272.5 503.5,272.5 504.5,272.5C 509.167,272.5 513.833,272.5 518.5,272.5C 519.167,272.5 519.833,272.5 520.5,272.5C 520.389,273.117 520.056,273.617 519.5,274C 513.833,274.667 508.167,274.667 502.5,274C 501.944,273.617 501.611,273.117 501.5,272.5 Z"/></g>
<g><path style="opacity:0.004" fill="#0000ff" d="M 547.5,272.5 C 548.833,272.5 550.167,272.5 551.5,272.5C 551.833,273.167 552.167,273.833 552.5,274.5C 550.302,274.88 548.635,274.213 547.5,272.5 Z"/></g>
<g><path style="opacity:0.004" fill="#0000ff" d="M 566.5,272.5 C 567.833,272.5 569.167,272.5 570.5,272.5C 569.365,274.213 567.698,274.88 565.5,274.5C 565.833,273.833 566.167,273.167 566.5,272.5 Z"/></g>
<g><path style="opacity:0.004" fill="#0000ff" d="M 583.5,272.5 C 585.027,272.427 586.027,273.094 586.5,274.5C 584.973,274.573 583.973,273.906 583.5,272.5 Z"/></g>
<g><path style="opacity:0.004" fill="#00fffe" d="M 605.5,272.5 C 605.167,273.167 604.833,273.833 604.5,274.5C 602.833,274.5 601.167,274.5 599.5,274.5C 600.523,273.025 602.523,272.358 605.5,272.5 Z"/></g>
<g><path style="opacity:0.004" fill="#0000ff" d="M 605.5,272.5 C 610.167,272.5 614.833,272.5 619.5,272.5C 622.833,272.5 626.167,272.5 629.5,272.5C 635.167,272.5 640.833,272.5 646.5,272.5C 649.167,272.5 651.833,272.5 654.5,272.5C 660.167,272.5 665.833,272.5 671.5,272.5C 673.833,272.5 676.167,272.5 678.5,272.5C 683.833,272.5 689.167,272.5 694.5,272.5C 697.167,272.5 699.833,272.5 702.5,272.5C 703.167,272.5 703.833,272.5 704.5,272.5C 704.833,273.167 705.167,273.833 705.5,274.5C 671.833,274.5 638.167,274.5 604.5,274.5C 604.833,273.833 605.167,273.167 605.5,272.5 Z"/></g>
<g><path style="opacity:0.004" fill="#33ecff" d="M 704.5,272.5 C 709.167,273.833 713.833,273.833 718.5,272.5C 718.167,273.167 717.833,273.833 717.5,274.5C 713.5,275.833 709.5,275.833 705.5,274.5C 705.167,273.833 704.833,273.167 704.5,272.5 Z"/></g>
<g><path style="opacity:0.004" fill="#0000ff" d="M 718.5,272.5 C 719.5,272.5 720.5,272.5 721.5,272.5C 720.713,274.104 719.38,274.771 717.5,274.5C 717.833,273.833 718.167,273.167 718.5,272.5 Z"/></g>
<g><path style="opacity:0.004" fill="#0000ff" d="M 747.5,272.5 C 747.833,272.5 748.167,272.5 748.5,272.5C 748.833,272.5 749.167,272.5 749.5,272.5C 749.833,273.167 750.167,273.833 750.5,274.5C 748.973,274.573 747.973,273.906 747.5,272.5 Z"/></g>
<g><path style="opacity:0.004" fill="#46d9ff" d="M 749.5,272.5 C 754.523,273.69 759.523,273.69 764.5,272.5C 764.167,273.167 763.833,273.833 763.5,274.5C 759.19,275.576 754.857,275.576 750.5,274.5C 750.167,273.833 749.833,273.167 749.5,272.5 Z"/></g>
<g><path style="opacity:0.004" fill="#0000ff" d="M 764.5,272.5 C 765.833,272.5 767.167,272.5 768.5,272.5C 767.365,274.213 765.698,274.88 763.5,274.5C 763.833,273.833 764.167,273.167 764.5,272.5 Z"/></g>
<g><path style="opacity:0.004" fill="#0000ff" d="M 793.5,272.5 C 794.833,272.5 796.167,272.5 797.5,272.5C 797.833,273.167 798.167,273.833 798.5,274.5C 796.219,274.923 794.552,274.256 793.5,272.5 Z"/></g>
<g><path style="opacity:0.004" fill="#48d6ff" d="M 797.5,272.5 C 802.833,273.833 808.167,273.833 813.5,272.5C 813.167,273.167 812.833,273.833 812.5,274.5C 807.833,275.833 803.167,275.833 798.5,274.5C 798.167,273.833 797.833,273.167 797.5,272.5 Z"/></g>
<g><path style="opacity:0.004" fill="#0000ff" d="M 813.5,272.5 C 814.167,272.5 814.833,272.5 815.5,272.5C 815.027,273.906 814.027,274.573 812.5,274.5C 812.833,273.833 813.167,273.167 813.5,272.5 Z"/></g>
<g><path style="opacity:0.004" fill="#0000ff" d="M 422.5,287.5 C 421.167,289.5 419.5,291.167 417.5,292.5C 418.167,289.833 419.833,288.167 422.5,287.5 Z"/></g>
<g><path style="opacity:0.004" fill="#0000ff" d="M 389.5,290.5 C 390.5,290.833 391.167,291.5 391.5,292.5C 390.167,292.5 389.5,291.833 389.5,290.5 Z"/></g>
</svg>
